<?xml version="1.0" encoding="UTF-8" standalone="no"?><svg xmlns="http://www.w3.org/2000/svg" xmlns:xlink="http://www.w3.org/1999/xlink" contentScriptType="application/ecmascript" contentStyleType="text/css" height="825px" preserveAspectRatio="none" style="width:913px;height:825px;" version="1.1" viewBox="0 0 913 825" width="913px" zoomAndPan="magnify"><defs><filter height="300%" id="f1x0cwma5ekj13" width="300%" x="-1" y="-1"><feGaussianBlur result="blurOut" stdDeviation="2.0"/><feColorMatrix in="blurOut" result="blurOut2" type="matrix" values="0 0 0 0 0 0 0 0 0 0 0 0 0 0 0 0 0 0 .4 0"/><feOffset dx="4.0" dy="4.0" in="blurOut2" result="blurOut3"/><feBlend in="SourceGraphic" in2="blurOut3" mode="normal"/></filter></defs><g><!--MD5=[7283a9eed84464550b6d5ebf39c68b05]
class Mastermind--><rect fill="#FEFECE" filter="url(#f1x0cwma5ekj13)" height="48" id="Mastermind" style="stroke:#A80036;stroke-width:1.5;" width="105" x="550.5" y="7"/><ellipse cx="565.5" cy="23" fill="#ADD1B2" rx="11" ry="11" style="stroke:#A80036;stroke-width:1.0;"/><path d="M568.4688,28.6406 Q567.8906,28.9375 567.25,29.0781 Q566.6094,29.2344 565.9063,29.2344 Q563.4063,29.2344 562.0781,27.5938 Q560.7656,25.9375 560.7656,22.8125 Q560.7656,19.6875 562.0781,18.0313 Q563.4063,16.375 565.9063,16.375 Q566.6094,16.375 567.25,16.5313 Q567.9063,16.6875 568.4688,16.9844 L568.4688,19.7031 Q567.8438,19.125 567.25,18.8594 Q566.6563,18.5781 566.0313,18.5781 Q564.6875,18.5781 564,19.6563 Q563.3125,20.7188 563.3125,22.8125 Q563.3125,24.9063 564,25.9844 Q564.6875,27.0469 566.0313,27.0469 Q566.6563,27.0469 567.25,26.7813 Q567.8438,26.5 568.4688,25.9219 L568.4688,28.6406 Z " fill="#000000"/><text fill="#000000" font-family="sans-serif" font-size="12" lengthAdjust="spacingAndGlyphs" textLength="73" x="579.5" y="27.1543">Mastermind</text><line style="stroke:#A80036;stroke-width:1.5;" x1="551.5" x2="654.5" y1="39" y2="39"/><line style="stroke:#A80036;stroke-width:1.5;" x1="551.5" x2="654.5" y1="47" y2="47"/><!--MD5=[9563755d011c5cec7ec66dc53565a59e]
class Board--><rect fill="#FEFECE" filter="url(#f1x0cwma5ekj13)" height="48" id="Board" style="stroke:#A80036;stroke-width:1.5;" width="69" x="281.5" y="115"/><ellipse cx="296.5" cy="131" fill="#ADD1B2" rx="11" ry="11" style="stroke:#A80036;stroke-width:1.0;"/><path d="M299.4688,136.6406 Q298.8906,136.9375 298.25,137.0781 Q297.6094,137.2344 296.9063,137.2344 Q294.4063,137.2344 293.0781,135.5938 Q291.7656,133.9375 291.7656,130.8125 Q291.7656,127.6875 293.0781,126.0313 Q294.4063,124.375 296.9063,124.375 Q297.6094,124.375 298.25,124.5313 Q298.9063,124.6875 299.4688,124.9844 L299.4688,127.7031 Q298.8438,127.125 298.25,126.8594 Q297.6563,126.5781 297.0313,126.5781 Q295.6875,126.5781 295,127.6563 Q294.3125,128.7188 294.3125,130.8125 Q294.3125,132.9063 295,133.9844 Q295.6875,135.0469 297.0313,135.0469 Q297.6563,135.0469 298.25,134.7813 Q298.8438,134.5 299.4688,133.9219 L299.4688,136.6406 Z " fill="#000000"/><text fill="#000000" font-family="sans-serif" font-size="12" lengthAdjust="spacingAndGlyphs" textLength="37" x="310.5" y="135.1543">Board</text><line style="stroke:#A80036;stroke-width:1.5;" x1="282.5" x2="349.5" y1="147" y2="147"/><line style="stroke:#A80036;stroke-width:1.5;" x1="282.5" x2="349.5" y1="155" y2="155"/><!--MD5=[2cb47ba637a0d19583e6199456f6ad0b]
class Player--><rect fill="#FEFECE" filter="url(#f1x0cwma5ekj13)" height="48" id="Player" style="stroke:#A80036;stroke-width:1.5;" width="70" x="668" y="115"/><ellipse cx="683" cy="131" fill="#ADD1B2" rx="11" ry="11" style="stroke:#A80036;stroke-width:1.0;"/><path d="M685.9688,136.6406 Q685.3906,136.9375 684.75,137.0781 Q684.1094,137.2344 683.4063,137.2344 Q680.9063,137.2344 679.5781,135.5938 Q678.2656,133.9375 678.2656,130.8125 Q678.2656,127.6875 679.5781,126.0313 Q680.9063,124.375 683.4063,124.375 Q684.1094,124.375 684.75,124.5313 Q685.4063,124.6875 685.9688,124.9844 L685.9688,127.7031 Q685.3438,127.125 684.75,126.8594 Q684.1563,126.5781 683.5313,126.5781 Q682.1875,126.5781 681.5,127.6563 Q680.8125,128.7188 680.8125,130.8125 Q680.8125,132.9063 681.5,133.9844 Q682.1875,135.0469 683.5313,135.0469 Q684.1563,135.0469 684.75,134.7813 Q685.3438,134.5 685.9688,133.9219 L685.9688,136.6406 Z " fill="#000000"/><text fill="#000000" font-family="sans-serif" font-size="12" lengthAdjust="spacingAndGlyphs" textLength="38" x="697" y="135.1543">Player</text><line style="stroke:#A80036;stroke-width:1.5;" x1="669" x2="737" y1="147" y2="147"/><line style="stroke:#A80036;stroke-width:1.5;" x1="669" x2="737" y1="155" y2="155"/><!--MD5=[dd91eae41778c45e12552e5329e240e8]
class Turn--><rect fill="#FEFECE" filter="url(#f1x0cwma5ekj13)" height="48" id="Turn" style="stroke:#A80036;stroke-width:1.5;" width="60" x="573" y="115"/><ellipse cx="588" cy="131" fill="#ADD1B2" rx="11" ry="11" style="stroke:#A80036;stroke-width:1.0;"/><path d="M590.9688,136.6406 Q590.3906,136.9375 589.75,137.0781 Q589.1094,137.2344 588.4063,137.2344 Q585.9063,137.2344 584.5781,135.5938 Q583.2656,133.9375 583.2656,130.8125 Q583.2656,127.6875 584.5781,126.0313 Q585.9063,124.375 588.4063,124.375 Q589.1094,124.375 589.75,124.5313 Q590.4063,124.6875 590.9688,124.9844 L590.9688,127.7031 Q590.3438,127.125 589.75,126.8594 Q589.1563,126.5781 588.5313,126.5781 Q587.1875,126.5781 586.5,127.6563 Q585.8125,128.7188 585.8125,130.8125 Q585.8125,132.9063 586.5,133.9844 Q587.1875,135.0469 588.5313,135.0469 Q589.1563,135.0469 589.75,134.7813 Q590.3438,134.5 590.9688,133.9219 L590.9688,136.6406 Z " fill="#000000"/><text fill="#000000" font-family="sans-serif" font-size="12" lengthAdjust="spacingAndGlyphs" textLength="28" x="602" y="135.1543">Turn</text><line style="stroke:#A80036;stroke-width:1.5;" x1="574" x2="632" y1="147" y2="147"/><line style="stroke:#A80036;stroke-width:1.5;" x1="574" x2="632" y1="155" y2="155"/><!--MD5=[1a09df81ec6c7d9cbe6ced275dd3e291]
class CodeMaker--><rect fill="#FEFECE" filter="url(#f1x0cwma5ekj13)" height="48" id="CodeMaker" style="stroke:#A80036;stroke-width:1.5;" width="102" x="671" y="223"/><ellipse cx="686" cy="239" fill="#ADD1B2" rx="11" ry="11" style="stroke:#A80036;stroke-width:1.0;"/><path d="M688.9688,244.6406 Q688.3906,244.9375 687.75,245.0781 Q687.1094,245.2344 686.4063,245.2344 Q683.9063,245.2344 682.5781,243.5938 Q681.2656,241.9375 681.2656,238.8125 Q681.2656,235.6875 682.5781,234.0313 Q683.9063,232.375 686.4063,232.375 Q687.1094,232.375 687.75,232.5313 Q688.4063,232.6875 688.9688,232.9844 L688.9688,235.7031 Q688.3438,235.125 687.75,234.8594 Q687.1563,234.5781 686.5313,234.5781 Q685.1875,234.5781 684.5,235.6563 Q683.8125,236.7188 683.8125,238.8125 Q683.8125,240.9063 684.5,241.9844 Q685.1875,243.0469 686.5313,243.0469 Q687.1563,243.0469 687.75,242.7813 Q688.3438,242.5 688.9688,241.9219 L688.9688,244.6406 Z " fill="#000000"/><text fill="#000000" font-family="sans-serif" font-size="12" lengthAdjust="spacingAndGlyphs" textLength="70" x="700" y="243.1543">CodeMaker</text><line style="stroke:#A80036;stroke-width:1.5;" x1="672" x2="772" y1="255" y2="255"/><line style="stroke:#A80036;stroke-width:1.5;" x1="672" x2="772" y1="263" y2="263"/><!--MD5=[daf47d429e3758f68e985f184238aa5d]
class CodeBreaker--><rect fill="#FEFECE" filter="url(#f1x0cwma5ekj13)" height="48" id="CodeBreaker" style="stroke:#A80036;stroke-width:1.5;" width="113" x="522.5" y="223"/><ellipse cx="537.5" cy="239" fill="#ADD1B2" rx="11" ry="11" style="stroke:#A80036;stroke-width:1.0;"/><path d="M540.4688,244.6406 Q539.8906,244.9375 539.25,245.0781 Q538.6094,245.2344 537.9063,245.2344 Q535.4063,245.2344 534.0781,243.5938 Q532.7656,241.9375 532.7656,238.8125 Q532.7656,235.6875 534.0781,234.0313 Q535.4063,232.375 537.9063,232.375 Q538.6094,232.375 539.25,232.5313 Q539.9063,232.6875 540.4688,232.9844 L540.4688,235.7031 Q539.8438,235.125 539.25,234.8594 Q538.6563,234.5781 538.0313,234.5781 Q536.6875,234.5781 536,235.6563 Q535.3125,236.7188 535.3125,238.8125 Q535.3125,240.9063 536,241.9844 Q536.6875,243.0469 538.0313,243.0469 Q538.6563,243.0469 539.25,242.7813 Q539.8438,242.5 540.4688,241.9219 L540.4688,244.6406 Z " fill="#000000"/><text fill="#000000" font-family="sans-serif" font-size="12" lengthAdjust="spacingAndGlyphs" textLength="81" x="551.5" y="243.1543">CodeBreaker</text><line style="stroke:#A80036;stroke-width:1.5;" x1="523.5" x2="634.5" y1="255" y2="255"/><line style="stroke:#A80036;stroke-width:1.5;" x1="523.5" x2="634.5" y1="263" y2="263"/><!--MD5=[adaa3654325cb0877e02ae004417f851]
class SecretCode--><rect fill="#FEFECE" filter="url(#f1x0cwma5ekj13)" height="48" id="SecretCode" style="stroke:#A80036;stroke-width:1.5;" width="105" x="707.5" y="331"/><ellipse cx="722.5" cy="347" fill="#ADD1B2" rx="11" ry="11" style="stroke:#A80036;stroke-width:1.0;"/><path d="M725.4688,352.6406 Q724.8906,352.9375 724.25,353.0781 Q723.6094,353.2344 722.9063,353.2344 Q720.4063,353.2344 719.0781,351.5938 Q717.7656,349.9375 717.7656,346.8125 Q717.7656,343.6875 719.0781,342.0313 Q720.4063,340.375 722.9063,340.375 Q723.6094,340.375 724.25,340.5313 Q724.9063,340.6875 725.4688,340.9844 L725.4688,343.7031 Q724.8438,343.125 724.25,342.8594 Q723.6563,342.5781 723.0313,342.5781 Q721.6875,342.5781 721,343.6563 Q720.3125,344.7188 720.3125,346.8125 Q720.3125,348.9063 721,349.9844 Q721.6875,351.0469 723.0313,351.0469 Q723.6563,351.0469 724.25,350.7813 Q724.8438,350.5 725.4688,349.9219 L725.4688,352.6406 Z " fill="#000000"/><text fill="#000000" font-family="sans-serif" font-size="12" lengthAdjust="spacingAndGlyphs" textLength="73" x="736.5" y="351.1543">SecretCode</text><line style="stroke:#A80036;stroke-width:1.5;" x1="708.5" x2="811.5" y1="363" y2="363"/><line style="stroke:#A80036;stroke-width:1.5;" x1="708.5" x2="811.5" y1="371" y2="371"/><!--MD5=[474fc92922596bfda8c6a0594b5ffddd]
class CodeProposal--><rect fill="#FEFECE" filter="url(#f1x0cwma5ekj13)" height="48" id="CodeProposal" style="stroke:#A80036;stroke-width:1.5;" width="119" x="410.5" y="331"/><ellipse cx="425.5" cy="347" fill="#ADD1B2" rx="11" ry="11" style="stroke:#A80036;stroke-width:1.0;"/><path d="M428.4688,352.6406 Q427.8906,352.9375 427.25,353.0781 Q426.6094,353.2344 425.9063,353.2344 Q423.4063,353.2344 422.0781,351.5938 Q420.7656,349.9375 420.7656,346.8125 Q420.7656,343.6875 422.0781,342.0313 Q423.4063,340.375 425.9063,340.375 Q426.6094,340.375 427.25,340.5313 Q427.9063,340.6875 428.4688,340.9844 L428.4688,343.7031 Q427.8438,343.125 427.25,342.8594 Q426.6563,342.5781 426.0313,342.5781 Q424.6875,342.5781 424,343.6563 Q423.3125,344.7188 423.3125,346.8125 Q423.3125,348.9063 424,349.9844 Q424.6875,351.0469 426.0313,351.0469 Q426.6563,351.0469 427.25,350.7813 Q427.8438,350.5 428.4688,349.9219 L428.4688,352.6406 Z " fill="#000000"/><text fill="#000000" font-family="sans-serif" font-size="12" lengthAdjust="spacingAndGlyphs" textLength="87" x="439.5" y="351.1543">CodeProposal</text><line style="stroke:#A80036;stroke-width:1.5;" x1="411.5" x2="528.5" y1="363" y2="363"/><line style="stroke:#A80036;stroke-width:1.5;" x1="411.5" x2="528.5" y1="371" y2="371"/><!--MD5=[ba580110b1777f63e0f1dfe3fcefdac0]
class Code--><rect fill="#FEFECE" filter="url(#f1x0cwma5ekj13)" height="48" id="Code" style="stroke:#A80036;stroke-width:1.5;" width="64" x="346" y="223"/><ellipse cx="361" cy="239" fill="#ADD1B2" rx="11" ry="11" style="stroke:#A80036;stroke-width:1.0;"/><path d="M363.9688,244.6406 Q363.3906,244.9375 362.75,245.0781 Q362.1094,245.2344 361.4063,245.2344 Q358.9063,245.2344 357.5781,243.5938 Q356.2656,241.9375 356.2656,238.8125 Q356.2656,235.6875 357.5781,234.0313 Q358.9063,232.375 361.4063,232.375 Q362.1094,232.375 362.75,232.5313 Q363.4063,232.6875 363.9688,232.9844 L363.9688,235.7031 Q363.3438,235.125 362.75,234.8594 Q362.1563,234.5781 361.5313,234.5781 Q360.1875,234.5781 359.5,235.6563 Q358.8125,236.7188 358.8125,238.8125 Q358.8125,240.9063 359.5,241.9844 Q360.1875,243.0469 361.5313,243.0469 Q362.1563,243.0469 362.75,242.7813 Q363.3438,242.5 363.9688,241.9219 L363.9688,244.6406 Z " fill="#000000"/><text fill="#000000" font-family="sans-serif" font-size="12" lengthAdjust="spacingAndGlyphs" textLength="32" x="375" y="243.1543">Code</text><line style="stroke:#A80036;stroke-width:1.5;" x1="347" x2="409" y1="255" y2="255"/><line style="stroke:#A80036;stroke-width:1.5;" x1="347" x2="409" y1="263" y2="263"/><!--MD5=[2741598bdf59a7d7e0d5c97658fd3022]
class Result--><rect fill="#FEFECE" filter="url(#f1x0cwma5ekj13)" height="48" id="Result" style="stroke:#A80036;stroke-width:1.5;" width="71" x="434.5" y="439"/><ellipse cx="449.5" cy="455" fill="#ADD1B2" rx="11" ry="11" style="stroke:#A80036;stroke-width:1.0;"/><path d="M452.4688,460.6406 Q451.8906,460.9375 451.25,461.0781 Q450.6094,461.2344 449.9063,461.2344 Q447.4063,461.2344 446.0781,459.5938 Q444.7656,457.9375 444.7656,454.8125 Q444.7656,451.6875 446.0781,450.0313 Q447.4063,448.375 449.9063,448.375 Q450.6094,448.375 451.25,448.5313 Q451.9063,448.6875 452.4688,448.9844 L452.4688,451.7031 Q451.8438,451.125 451.25,450.8594 Q450.6563,450.5781 450.0313,450.5781 Q448.6875,450.5781 448,451.6563 Q447.3125,452.7188 447.3125,454.8125 Q447.3125,456.9063 448,457.9844 Q448.6875,459.0469 450.0313,459.0469 Q450.6563,459.0469 451.25,458.7813 Q451.8438,458.5 452.4688,457.9219 L452.4688,460.6406 Z " fill="#000000"/><text fill="#000000" font-family="sans-serif" font-size="12" lengthAdjust="spacingAndGlyphs" textLength="39" x="463.5" y="459.1543">Result</text><line style="stroke:#A80036;stroke-width:1.5;" x1="435.5" x2="504.5" y1="471" y2="471"/><line style="stroke:#A80036;stroke-width:1.5;" x1="435.5" x2="504.5" y1="479" y2="479"/><!--MD5=[d8c8cfd5ca149094f5b67f9f607a5ec7]
class Token--><rect fill="#FEFECE" filter="url(#f1x0cwma5ekj13)" height="48" id="Token" style="stroke:#A80036;stroke-width:1.5;" width="70" x="291" y="547"/><ellipse cx="306" cy="563" fill="#ADD1B2" rx="11" ry="11" style="stroke:#A80036;stroke-width:1.0;"/><path d="M308.9688,568.6406 Q308.3906,568.9375 307.75,569.0781 Q307.1094,569.2344 306.4063,569.2344 Q303.9063,569.2344 302.5781,567.5938 Q301.2656,565.9375 301.2656,562.8125 Q301.2656,559.6875 302.5781,558.0313 Q303.9063,556.375 306.4063,556.375 Q307.1094,556.375 307.75,556.5313 Q308.4063,556.6875 308.9688,556.9844 L308.9688,559.7031 Q308.3438,559.125 307.75,558.8594 Q307.1563,558.5781 306.5313,558.5781 Q305.1875,558.5781 304.5,559.6563 Q303.8125,560.7188 303.8125,562.8125 Q303.8125,564.9063 304.5,565.9844 Q305.1875,567.0469 306.5313,567.0469 Q307.1563,567.0469 307.75,566.7813 Q308.3438,566.5 308.9688,565.9219 L308.9688,568.6406 Z " fill="#000000"/><text fill="#000000" font-family="sans-serif" font-size="12" lengthAdjust="spacingAndGlyphs" textLength="38" x="320" y="567.1543">Token</text><line style="stroke:#A80036;stroke-width:1.5;" x1="292" x2="360" y1="579" y2="579"/><line style="stroke:#A80036;stroke-width:1.5;" x1="292" x2="360" y1="587" y2="587"/><!--MD5=[31ecd2d5d3776196a697d793f2b80e61]
class WinnerCodeBreaker--><rect fill="#FEFECE" filter="url(#f1x0cwma5ekj13)" height="48" id="WinnerCodeBreaker" style="stroke:#A80036;stroke-width:1.5;" width="156" x="682" y="547"/><ellipse cx="697" cy="563" fill="#ADD1B2" rx="11" ry="11" style="stroke:#A80036;stroke-width:1.0;"/><path d="M699.9688,568.6406 Q699.3906,568.9375 698.75,569.0781 Q698.1094,569.2344 697.4063,569.2344 Q694.9063,569.2344 693.5781,567.5938 Q692.2656,565.9375 692.2656,562.8125 Q692.2656,559.6875 693.5781,558.0313 Q694.9063,556.375 697.4063,556.375 Q698.1094,556.375 698.75,556.5313 Q699.4063,556.6875 699.9688,556.9844 L699.9688,559.7031 Q699.3438,559.125 698.75,558.8594 Q698.1563,558.5781 697.5313,558.5781 Q696.1875,558.5781 695.5,559.6563 Q694.8125,560.7188 694.8125,562.8125 Q694.8125,564.9063 695.5,565.9844 Q696.1875,567.0469 697.5313,567.0469 Q698.1563,567.0469 698.75,566.7813 Q699.3438,566.5 699.9688,565.9219 L699.9688,568.6406 Z " fill="#000000"/><text fill="#000000" font-family="sans-serif" font-size="12" lengthAdjust="spacingAndGlyphs" textLength="124" x="711" y="567.1543">WinnerCodeBreaker</text><line style="stroke:#A80036;stroke-width:1.5;" x1="683" x2="837" y1="579" y2="579"/><line style="stroke:#A80036;stroke-width:1.5;" x1="683" x2="837" y1="587" y2="587"/><!--MD5=[4d4eb26d042d74c9fb837d4bd92f5625]
class Colour--><rect fill="#FEFECE" filter="url(#f1x0cwma5ekj13)" height="48" id="Colour" style="stroke:#A80036;stroke-width:1.5;" width="72" x="290" y="655"/><ellipse cx="305" cy="671" fill="#ADD1B2" rx="11" ry="11" style="stroke:#A80036;stroke-width:1.0;"/><path d="M307.9688,676.6406 Q307.3906,676.9375 306.75,677.0781 Q306.1094,677.2344 305.4063,677.2344 Q302.9063,677.2344 301.5781,675.5938 Q300.2656,673.9375 300.2656,670.8125 Q300.2656,667.6875 301.5781,666.0313 Q302.9063,664.375 305.4063,664.375 Q306.1094,664.375 306.75,664.5313 Q307.4063,664.6875 307.9688,664.9844 L307.9688,667.7031 Q307.3438,667.125 306.75,666.8594 Q306.1563,666.5781 305.5313,666.5781 Q304.1875,666.5781 303.5,667.6563 Q302.8125,668.7188 302.8125,670.8125 Q302.8125,672.9063 303.5,673.9844 Q304.1875,675.0469 305.5313,675.0469 Q306.1563,675.0469 306.75,674.7813 Q307.3438,674.5 307.9688,673.9219 L307.9688,676.6406 Z " fill="#000000"/><text fill="#000000" font-family="sans-serif" font-size="12" lengthAdjust="spacingAndGlyphs" textLength="40" x="319" y="675.1543">Colour</text><line style="stroke:#A80036;stroke-width:1.5;" x1="291" x2="361" y1="687" y2="687"/><line style="stroke:#A80036;stroke-width:1.5;" x1="291" x2="361" y1="695" y2="695"/><!--MD5=[a64a835c3d62471a77f615251fdde58a]
class Position--><rect fill="#FEFECE" filter="url(#f1x0cwma5ekj13)" height="48" id="Position" style="stroke:#A80036;stroke-width:1.5;" width="82" x="613" y="763"/><ellipse cx="628" cy="779" fill="#ADD1B2" rx="11" ry="11" style="stroke:#A80036;stroke-width:1.0;"/><path d="M630.9688,784.6406 Q630.3906,784.9375 629.75,785.0781 Q629.1094,785.2344 628.4063,785.2344 Q625.9063,785.2344 624.5781,783.5938 Q623.2656,781.9375 623.2656,778.8125 Q623.2656,775.6875 624.5781,774.0313 Q625.9063,772.375 628.4063,772.375 Q629.1094,772.375 629.75,772.5313 Q630.4063,772.6875 630.9688,772.9844 L630.9688,775.7031 Q630.3438,775.125 629.75,774.8594 Q629.1563,774.5781 628.5313,774.5781 Q627.1875,774.5781 626.5,775.6563 Q625.8125,776.7188 625.8125,778.8125 Q625.8125,780.9063 626.5,781.9844 Q627.1875,783.0469 628.5313,783.0469 Q629.1563,783.0469 629.75,782.7813 Q630.3438,782.5 630.9688,781.9219 L630.9688,784.6406 Z " fill="#000000"/><text fill="#000000" font-family="sans-serif" font-size="12" lengthAdjust="spacingAndGlyphs" textLength="50" x="642" y="783.1543">Position</text><line style="stroke:#A80036;stroke-width:1.5;" x1="614" x2="694" y1="795" y2="795"/><line style="stroke:#A80036;stroke-width:1.5;" x1="614" x2="694" y1="803" y2="803"/><!--MD5=[08be530975453a47bdc5b5370100f2fc]
class Red--><rect fill="#FEFECE" filter="url(#f1x0cwma5ekj13)" height="48" id="Red" style="stroke:#A80036;stroke-width:1.5;" width="56" x="7" y="763"/><ellipse cx="22" cy="779" fill="#ADD1B2" rx="11" ry="11" style="stroke:#A80036;stroke-width:1.0;"/><path d="M24.9688,784.6406 Q24.3906,784.9375 23.75,785.0781 Q23.1094,785.2344 22.4063,785.2344 Q19.9063,785.2344 18.5781,783.5938 Q17.2656,781.9375 17.2656,778.8125 Q17.2656,775.6875 18.5781,774.0313 Q19.9063,772.375 22.4063,772.375 Q23.1094,772.375 23.75,772.5313 Q24.4063,772.6875 24.9688,772.9844 L24.9688,775.7031 Q24.3438,775.125 23.75,774.8594 Q23.1563,774.5781 22.5313,774.5781 Q21.1875,774.5781 20.5,775.6563 Q19.8125,776.7188 19.8125,778.8125 Q19.8125,780.9063 20.5,781.9844 Q21.1875,783.0469 22.5313,783.0469 Q23.1563,783.0469 23.75,782.7813 Q24.3438,782.5 24.9688,781.9219 L24.9688,784.6406 Z " fill="#000000"/><text fill="#000000" font-family="sans-serif" font-size="12" lengthAdjust="spacingAndGlyphs" textLength="24" x="36" y="783.1543">Red</text><line style="stroke:#A80036;stroke-width:1.5;" x1="8" x2="62" y1="795" y2="795"/><line style="stroke:#A80036;stroke-width:1.5;" x1="8" x2="62" y1="803" y2="803"/><!--MD5=[e5fcaaf7dd279fcaa419853012f8d36f]
class Blue--><rect fill="#FEFECE" filter="url(#f1x0cwma5ekj13)" height="48" id="Blue" style="stroke:#A80036;stroke-width:1.5;" width="59" x="98.5" y="763"/><ellipse cx="113.5" cy="779" fill="#ADD1B2" rx="11" ry="11" style="stroke:#A80036;stroke-width:1.0;"/><path d="M116.4688,784.6406 Q115.8906,784.9375 115.25,785.0781 Q114.6094,785.2344 113.9063,785.2344 Q111.4063,785.2344 110.0781,783.5938 Q108.7656,781.9375 108.7656,778.8125 Q108.7656,775.6875 110.0781,774.0313 Q111.4063,772.375 113.9063,772.375 Q114.6094,772.375 115.25,772.5313 Q115.9063,772.6875 116.4688,772.9844 L116.4688,775.7031 Q115.8438,775.125 115.25,774.8594 Q114.6563,774.5781 114.0313,774.5781 Q112.6875,774.5781 112,775.6563 Q111.3125,776.7188 111.3125,778.8125 Q111.3125,780.9063 112,781.9844 Q112.6875,783.0469 114.0313,783.0469 Q114.6563,783.0469 115.25,782.7813 Q115.8438,782.5 116.4688,781.9219 L116.4688,784.6406 Z " fill="#000000"/><text fill="#000000" font-family="sans-serif" font-size="12" lengthAdjust="spacingAndGlyphs" textLength="27" x="127.5" y="783.1543">Blue</text><line style="stroke:#A80036;stroke-width:1.5;" x1="99.5" x2="156.5" y1="795" y2="795"/><line style="stroke:#A80036;stroke-width:1.5;" x1="99.5" x2="156.5" y1="803" y2="803"/><!--MD5=[3778656fef14cf416db6e1fe750da04b]
class Green--><rect fill="#FEFECE" filter="url(#f1x0cwma5ekj13)" height="48" id="Green" style="stroke:#A80036;stroke-width:1.5;" width="70" x="193" y="763"/><ellipse cx="208" cy="779" fill="#ADD1B2" rx="11" ry="11" style="stroke:#A80036;stroke-width:1.0;"/><path d="M210.9688,784.6406 Q210.3906,784.9375 209.75,785.0781 Q209.1094,785.2344 208.4063,785.2344 Q205.9063,785.2344 204.5781,783.5938 Q203.2656,781.9375 203.2656,778.8125 Q203.2656,775.6875 204.5781,774.0313 Q205.9063,772.375 208.4063,772.375 Q209.1094,772.375 209.75,772.5313 Q210.4063,772.6875 210.9688,772.9844 L210.9688,775.7031 Q210.3438,775.125 209.75,774.8594 Q209.1563,774.5781 208.5313,774.5781 Q207.1875,774.5781 206.5,775.6563 Q205.8125,776.7188 205.8125,778.8125 Q205.8125,780.9063 206.5,781.9844 Q207.1875,783.0469 208.5313,783.0469 Q209.1563,783.0469 209.75,782.7813 Q210.3438,782.5 210.9688,781.9219 L210.9688,784.6406 Z " fill="#000000"/><text fill="#000000" font-family="sans-serif" font-size="12" lengthAdjust="spacingAndGlyphs" textLength="38" x="222" y="783.1543">Green</text><line style="stroke:#A80036;stroke-width:1.5;" x1="194" x2="262" y1="795" y2="795"/><line style="stroke:#A80036;stroke-width:1.5;" x1="194" x2="262" y1="803" y2="803"/><!--MD5=[59a197a4e33151d5112197f2c5528c04]
class Yellow--><rect fill="#FEFECE" filter="url(#f1x0cwma5ekj13)" height="48" id="Yellow" style="stroke:#A80036;stroke-width:1.5;" width="70" x="298" y="763"/><ellipse cx="313" cy="779" fill="#ADD1B2" rx="11" ry="11" style="stroke:#A80036;stroke-width:1.0;"/><path d="M315.9688,784.6406 Q315.3906,784.9375 314.75,785.0781 Q314.1094,785.2344 313.4063,785.2344 Q310.9063,785.2344 309.5781,783.5938 Q308.2656,781.9375 308.2656,778.8125 Q308.2656,775.6875 309.5781,774.0313 Q310.9063,772.375 313.4063,772.375 Q314.1094,772.375 314.75,772.5313 Q315.4063,772.6875 315.9688,772.9844 L315.9688,775.7031 Q315.3438,775.125 314.75,774.8594 Q314.1563,774.5781 313.5313,774.5781 Q312.1875,774.5781 311.5,775.6563 Q310.8125,776.7188 310.8125,778.8125 Q310.8125,780.9063 311.5,781.9844 Q312.1875,783.0469 313.5313,783.0469 Q314.1563,783.0469 314.75,782.7813 Q315.3438,782.5 315.9688,781.9219 L315.9688,784.6406 Z " fill="#000000"/><text fill="#000000" font-family="sans-serif" font-size="12" lengthAdjust="spacingAndGlyphs" textLength="38" x="327" y="783.1543">Yellow</text><line style="stroke:#A80036;stroke-width:1.5;" x1="299" x2="367" y1="795" y2="795"/><line style="stroke:#A80036;stroke-width:1.5;" x1="299" x2="367" y1="803" y2="803"/><!--MD5=[d0fb6b9bec42d096e013c1394c3b1710]
class Pink--><rect fill="#FEFECE" filter="url(#f1x0cwma5ekj13)" height="48" id="Pink" style="stroke:#A80036;stroke-width:1.5;" width="58" x="403" y="763"/><ellipse cx="418" cy="779" fill="#ADD1B2" rx="11" ry="11" style="stroke:#A80036;stroke-width:1.0;"/><path d="M420.9688,784.6406 Q420.3906,784.9375 419.75,785.0781 Q419.1094,785.2344 418.4063,785.2344 Q415.9063,785.2344 414.5781,783.5938 Q413.2656,781.9375 413.2656,778.8125 Q413.2656,775.6875 414.5781,774.0313 Q415.9063,772.375 418.4063,772.375 Q419.1094,772.375 419.75,772.5313 Q420.4063,772.6875 420.9688,772.9844 L420.9688,775.7031 Q420.3438,775.125 419.75,774.8594 Q419.1563,774.5781 418.5313,774.5781 Q417.1875,774.5781 416.5,775.6563 Q415.8125,776.7188 415.8125,778.8125 Q415.8125,780.9063 416.5,781.9844 Q417.1875,783.0469 418.5313,783.0469 Q419.1563,783.0469 419.75,782.7813 Q420.3438,782.5 420.9688,781.9219 L420.9688,784.6406 Z " fill="#000000"/><text fill="#000000" font-family="sans-serif" font-size="12" lengthAdjust="spacingAndGlyphs" textLength="26" x="432" y="783.1543">Pink</text><line style="stroke:#A80036;stroke-width:1.5;" x1="404" x2="460" y1="795" y2="795"/><line style="stroke:#A80036;stroke-width:1.5;" x1="404" x2="460" y1="803" y2="803"/><!--MD5=[a7fc18f5ea1e7cf57d55428400c16471]
class Brown--><rect fill="#FEFECE" filter="url(#f1x0cwma5ekj13)" height="48" id="Brown" style="stroke:#A80036;stroke-width:1.5;" width="70" x="496" y="763"/><ellipse cx="511" cy="779" fill="#ADD1B2" rx="11" ry="11" style="stroke:#A80036;stroke-width:1.0;"/><path d="M513.9688,784.6406 Q513.3906,784.9375 512.75,785.0781 Q512.1094,785.2344 511.4063,785.2344 Q508.9063,785.2344 507.5781,783.5938 Q506.2656,781.9375 506.2656,778.8125 Q506.2656,775.6875 507.5781,774.0313 Q508.9063,772.375 511.4063,772.375 Q512.1094,772.375 512.75,772.5313 Q513.4063,772.6875 513.9688,772.9844 L513.9688,775.7031 Q513.3438,775.125 512.75,774.8594 Q512.1563,774.5781 511.5313,774.5781 Q510.1875,774.5781 509.5,775.6563 Q508.8125,776.7188 508.8125,778.8125 Q508.8125,780.9063 509.5,781.9844 Q510.1875,783.0469 511.5313,783.0469 Q512.1563,783.0469 512.75,782.7813 Q513.3438,782.5 513.9688,781.9219 L513.9688,784.6406 Z " fill="#000000"/><text fill="#000000" font-family="sans-serif" font-size="12" lengthAdjust="spacingAndGlyphs" textLength="38" x="525" y="783.1543">Brown</text><line style="stroke:#A80036;stroke-width:1.5;" x1="497" x2="565" y1="795" y2="795"/><line style="stroke:#A80036;stroke-width:1.5;" x1="497" x2="565" y1="803" y2="803"/><!--MD5=[5f0899136ed8f523b18ed05779c24112]
class Match--><rect fill="#FEFECE" filter="url(#f1x0cwma5ekj13)" height="48" id="Match" style="stroke:#A80036;stroke-width:1.5;" width="70" x="396" y="547"/><ellipse cx="411" cy="563" fill="#ADD1B2" rx="11" ry="11" style="stroke:#A80036;stroke-width:1.0;"/><path d="M413.9688,568.6406 Q413.3906,568.9375 412.75,569.0781 Q412.1094,569.2344 411.4063,569.2344 Q408.9063,569.2344 407.5781,567.5938 Q406.2656,565.9375 406.2656,562.8125 Q406.2656,559.6875 407.5781,558.0313 Q408.9063,556.375 411.4063,556.375 Q412.1094,556.375 412.75,556.5313 Q413.4063,556.6875 413.9688,556.9844 L413.9688,559.7031 Q413.3438,559.125 412.75,558.8594 Q412.1563,558.5781 411.5313,558.5781 Q410.1875,558.5781 409.5,559.6563 Q408.8125,560.7188 408.8125,562.8125 Q408.8125,564.9063 409.5,565.9844 Q410.1875,567.0469 411.5313,567.0469 Q412.1563,567.0469 412.75,566.7813 Q413.3438,566.5 413.9688,565.9219 L413.9688,568.6406 Z " fill="#000000"/><text fill="#000000" font-family="sans-serif" font-size="12" lengthAdjust="spacingAndGlyphs" textLength="38" x="425" y="567.1543">Match</text><line style="stroke:#A80036;stroke-width:1.5;" x1="397" x2="465" y1="579" y2="579"/><line style="stroke:#A80036;stroke-width:1.5;" x1="397" x2="465" y1="587" y2="587"/><!--MD5=[b38b6dedda4d17cc5a4b890ad21e3e02]
class BlackMatch--><rect fill="#FEFECE" filter="url(#f1x0cwma5ekj13)" height="48" id="BlackMatch" style="stroke:#A80036;stroke-width:1.5;" width="103" x="608.5" y="655"/><ellipse cx="623.5" cy="671" fill="#ADD1B2" rx="11" ry="11" style="stroke:#A80036;stroke-width:1.0;"/><path d="M626.4688,676.6406 Q625.8906,676.9375 625.25,677.0781 Q624.6094,677.2344 623.9063,677.2344 Q621.4063,677.2344 620.0781,675.5938 Q618.7656,673.9375 618.7656,670.8125 Q618.7656,667.6875 620.0781,666.0313 Q621.4063,664.375 623.9063,664.375 Q624.6094,664.375 625.25,664.5313 Q625.9063,664.6875 626.4688,664.9844 L626.4688,667.7031 Q625.8438,667.125 625.25,666.8594 Q624.6563,666.5781 624.0313,666.5781 Q622.6875,666.5781 622,667.6563 Q621.3125,668.7188 621.3125,670.8125 Q621.3125,672.9063 622,673.9844 Q622.6875,675.0469 624.0313,675.0469 Q624.6563,675.0469 625.25,674.7813 Q625.8438,674.5 626.4688,673.9219 L626.4688,676.6406 Z " fill="#000000"/><text fill="#000000" font-family="sans-serif" font-size="12" lengthAdjust="spacingAndGlyphs" textLength="71" x="637.5" y="675.1543">BlackMatch</text><line style="stroke:#A80036;stroke-width:1.5;" x1="609.5" x2="710.5" y1="687" y2="687"/><line style="stroke:#A80036;stroke-width:1.5;" x1="609.5" x2="710.5" y1="695" y2="695"/><!--MD5=[575b3b96919d1f5cab2a270ec623da6d]
class WinnerCodeMaker--><rect fill="#FEFECE" filter="url(#f1x0cwma5ekj13)" height="48" id="WinnerCodeMaker" style="stroke:#A80036;stroke-width:1.5;" width="145" x="501.5" y="547"/><ellipse cx="516.5" cy="563" fill="#ADD1B2" rx="11" ry="11" style="stroke:#A80036;stroke-width:1.0;"/><path d="M519.4688,568.6406 Q518.8906,568.9375 518.25,569.0781 Q517.6094,569.2344 516.9063,569.2344 Q514.4063,569.2344 513.0781,567.5938 Q511.7656,565.9375 511.7656,562.8125 Q511.7656,559.6875 513.0781,558.0313 Q514.4063,556.375 516.9063,556.375 Q517.6094,556.375 518.25,556.5313 Q518.9063,556.6875 519.4688,556.9844 L519.4688,559.7031 Q518.8438,559.125 518.25,558.8594 Q517.6563,558.5781 517.0313,558.5781 Q515.6875,558.5781 515,559.6563 Q514.3125,560.7188 514.3125,562.8125 Q514.3125,564.9063 515,565.9844 Q515.6875,567.0469 517.0313,567.0469 Q517.6563,567.0469 518.25,566.7813 Q518.8438,566.5 519.4688,565.9219 L519.4688,568.6406 Z " fill="#000000"/><text fill="#000000" font-family="sans-serif" font-size="12" lengthAdjust="spacingAndGlyphs" textLength="113" x="530.5" y="567.1543">WinnerCodeMaker</text><line style="stroke:#A80036;stroke-width:1.5;" x1="502.5" x2="645.5" y1="579" y2="579"/><line style="stroke:#A80036;stroke-width:1.5;" x1="502.5" x2="645.5" y1="587" y2="587"/><!--MD5=[2f3b7a7d14d0d0337742f502e91c8bb6]
class WhiteMatch--><rect fill="#FEFECE" filter="url(#f1x0cwma5ekj13)" height="48" id="WhiteMatch" style="stroke:#A80036;stroke-width:1.5;" width="105" x="468.5" y="655"/><ellipse cx="483.5" cy="671" fill="#ADD1B2" rx="11" ry="11" style="stroke:#A80036;stroke-width:1.0;"/><path d="M486.4688,676.6406 Q485.8906,676.9375 485.25,677.0781 Q484.6094,677.2344 483.9063,677.2344 Q481.4063,677.2344 480.0781,675.5938 Q478.7656,673.9375 478.7656,670.8125 Q478.7656,667.6875 480.0781,666.0313 Q481.4063,664.375 483.9063,664.375 Q484.6094,664.375 485.25,664.5313 Q485.9063,664.6875 486.4688,664.9844 L486.4688,667.7031 Q485.8438,667.125 485.25,666.8594 Q484.6563,666.5781 484.0313,666.5781 Q482.6875,666.5781 482,667.6563 Q481.3125,668.7188 481.3125,670.8125 Q481.3125,672.9063 482,673.9844 Q482.6875,675.0469 484.0313,675.0469 Q484.6563,675.0469 485.25,674.7813 Q485.8438,674.5 486.4688,673.9219 L486.4688,676.6406 Z " fill="#000000"/><text fill="#000000" font-family="sans-serif" font-size="12" lengthAdjust="spacingAndGlyphs" textLength="73" x="497.5" y="675.1543">WhiteMatch</text><line style="stroke:#A80036;stroke-width:1.5;" x1="469.5" x2="572.5" y1="687" y2="687"/><line style="stroke:#A80036;stroke-width:1.5;" x1="469.5" x2="572.5" y1="695" y2="695"/><!--MD5=[f8e7078f77c005d15b486c0c98deb1e6]
class Action--><rect fill="#FEFECE" filter="url(#f1x0cwma5ekj13)" height="48" id="Action" style="stroke:#A80036;stroke-width:1.5;" width="71" x="745.5" y="7"/><ellipse cx="760.5" cy="23" fill="#ADD1B2" rx="11" ry="11" style="stroke:#A80036;stroke-width:1.0;"/><path d="M763.4688,28.6406 Q762.8906,28.9375 762.25,29.0781 Q761.6094,29.2344 760.9063,29.2344 Q758.4063,29.2344 757.0781,27.5938 Q755.7656,25.9375 755.7656,22.8125 Q755.7656,19.6875 757.0781,18.0313 Q758.4063,16.375 760.9063,16.375 Q761.6094,16.375 762.25,16.5313 Q762.9063,16.6875 763.4688,16.9844 L763.4688,19.7031 Q762.8438,19.125 762.25,18.8594 Q761.6563,18.5781 761.0313,18.5781 Q759.6875,18.5781 759,19.6563 Q758.3125,20.7188 758.3125,22.8125 Q758.3125,24.9063 759,25.9844 Q759.6875,27.0469 761.0313,27.0469 Q761.6563,27.0469 762.25,26.7813 Q762.8438,26.5 763.4688,25.9219 L763.4688,28.6406 Z " fill="#000000"/><text fill="#000000" font-family="sans-serif" font-size="12" lengthAdjust="spacingAndGlyphs" textLength="39" x="774.5" y="27.1543">Action</text><line style="stroke:#A80036;stroke-width:1.5;" x1="746.5" x2="815.5" y1="39" y2="39"/><line style="stroke:#A80036;stroke-width:1.5;" x1="746.5" x2="815.5" y1="47" y2="47"/><!--MD5=[0ef5ab0e6d098cd42b386ce8ac382536]
class PutCodeSecret--><rect fill="#FEFECE" filter="url(#f1x0cwma5ekj13)" height="48" id="PutCodeSecret" style="stroke:#A80036;stroke-width:1.5;" width="126" x="773" y="115"/><ellipse cx="788" cy="131" fill="#ADD1B2" rx="11" ry="11" style="stroke:#A80036;stroke-width:1.0;"/><path d="M790.9688,136.6406 Q790.3906,136.9375 789.75,137.0781 Q789.1094,137.2344 788.4063,137.2344 Q785.9063,137.2344 784.5781,135.5938 Q783.2656,133.9375 783.2656,130.8125 Q783.2656,127.6875 784.5781,126.0313 Q785.9063,124.375 788.4063,124.375 Q789.1094,124.375 789.75,124.5313 Q790.4063,124.6875 790.9688,124.9844 L790.9688,127.7031 Q790.3438,127.125 789.75,126.8594 Q789.1563,126.5781 788.5313,126.5781 Q787.1875,126.5781 786.5,127.6563 Q785.8125,128.7188 785.8125,130.8125 Q785.8125,132.9063 786.5,133.9844 Q787.1875,135.0469 788.5313,135.0469 Q789.1563,135.0469 789.75,134.7813 Q790.3438,134.5 790.9688,133.9219 L790.9688,136.6406 Z " fill="#000000"/><text fill="#000000" font-family="sans-serif" font-size="12" lengthAdjust="spacingAndGlyphs" textLength="94" x="802" y="135.1543">PutCodeSecret</text><line style="stroke:#A80036;stroke-width:1.5;" x1="774" x2="898" y1="147" y2="147"/><line style="stroke:#A80036;stroke-width:1.5;" x1="774" x2="898" y1="155" y2="155"/><!--MD5=[a82aed1633a193fca764db5538477251]
class MakeCodeProposal--><rect fill="#FEFECE" filter="url(#f1x0cwma5ekj13)" height="48" id="MakeCodeProposal" style="stroke:#A80036;stroke-width:1.5;" width="152" x="386" y="115"/><ellipse cx="401" cy="131" fill="#ADD1B2" rx="11" ry="11" style="stroke:#A80036;stroke-width:1.0;"/><path d="M403.9688,136.6406 Q403.3906,136.9375 402.75,137.0781 Q402.1094,137.2344 401.4063,137.2344 Q398.9063,137.2344 397.5781,135.5938 Q396.2656,133.9375 396.2656,130.8125 Q396.2656,127.6875 397.5781,126.0313 Q398.9063,124.375 401.4063,124.375 Q402.1094,124.375 402.75,124.5313 Q403.4063,124.6875 403.9688,124.9844 L403.9688,127.7031 Q403.3438,127.125 402.75,126.8594 Q402.1563,126.5781 401.5313,126.5781 Q400.1875,126.5781 399.5,127.6563 Q398.8125,128.7188 398.8125,130.8125 Q398.8125,132.9063 399.5,133.9844 Q400.1875,135.0469 401.5313,135.0469 Q402.1563,135.0469 402.75,134.7813 Q403.3438,134.5 403.9688,133.9219 L403.9688,136.6406 Z " fill="#000000"/><text fill="#000000" font-family="sans-serif" font-size="12" lengthAdjust="spacingAndGlyphs" textLength="120" x="415" y="135.1543">MakeCodeProposal</text><line style="stroke:#A80036;stroke-width:1.5;" x1="387" x2="537" y1="147" y2="147"/><line style="stroke:#A80036;stroke-width:1.5;" x1="387" x2="537" y1="155" y2="155"/><!--MD5=[ba28573f2062cf9f5d1d4aa517f0cc38]
link Mastermind to Board--><path codeLine="1" d="M538.8572,52.203 C538.8572,52.203 424.5797,91.8847 368,115 C366.3331,115.681 364.6419,116.3857 362.938,117.1075 " fill="none" id="Mastermind-Board" style="stroke:#A80036;stroke-width:1.0;"/><polygon fill="#A80036" points="350.7765,122.4314,360.6252,122.4865,355.3568,120.4263,357.417,115.1579,350.7765,122.4314" style="stroke:#A80036;stroke-width:1.0;"/><line style="stroke:#A80036;stroke-width:1.0;" x1="355.3568" x2="362.6853" y1="120.4263" y2="117.218"/><polygon fill="#A80036" points="550.2255,48.3609,543.2607,46.4925,538.8572,52.203,545.822,54.0714,550.2255,48.3609" style="stroke:#A80036;stroke-width:1.0;"/><!--MD5=[af4d99cd4784731f062880949247790a]
link Mastermind to Player--><path codeLine="2" d="M633.5949,64.0424 C633.5949,64.0424 659.694,92.2295 671.5408,105.0241 " fill="none" id="Mastermind-Player" style="stroke:#A80036;stroke-width:1.0;"/><polygon fill="#A80036" points="680.6329,114.8436,677.4533,105.5221,677.2359,111.1748,671.5832,110.9574,680.6329,114.8436" style="stroke:#A80036;stroke-width:1.0;"/><line style="stroke:#A80036;stroke-width:1.0;" x1="677.2359" x2="671.8006" y1="111.1748" y2="105.3047"/><polygon fill="#A80036" points="625.442,55.2373,626.5834,62.3575,633.5949,64.0424,632.4535,56.9222,625.442,55.2373" style="stroke:#A80036;stroke-width:1.0;"/><text fill="#000000" font-family="sans-serif" font-size="13" lengthAdjust="spacingAndGlyphs" textLength="8" x="665.8763" y="103.8156">2</text><!--MD5=[f95f66ed9d6e0f523703ae56e87204e4]
link Mastermind to Turn--><path codeLine="3" d="M603,67.2373 C603,67.2373 603,90.8868 603,101.5426 " fill="none" id="Mastermind-Turn" style="stroke:#A80036;stroke-width:1.0;"/><polygon fill="#A80036" points="603,114.8436,607,105.8436,603,109.8436,599,105.8436,603,114.8436" style="stroke:#A80036;stroke-width:1.0;"/><line style="stroke:#A80036;stroke-width:1.0;" x1="603" x2="603.0001" y1="109.8436" y2="101.8436"/><polygon fill="#A80036" points="603,55.2373,599,61.2373,603,67.2373,607,61.2373,603,55.2373" style="stroke:#A80036;stroke-width:1.0;"/><!--MD5=[4c0e5c8f8fb76e17fe0196573152c80f]
reverse link Player to CodeMaker--><path codeLine="5" d="M710.7919,183.2911 C713.1715,196.8171 715.699,211.1835 717.7503,222.8436 " fill="none" id="Player-backto-CodeMaker" style="stroke:#A80036;stroke-width:1.0;"/><polygon fill="none" points="703.8352,184.1477,707.264,163.2373,717.6235,181.7219,703.8352,184.1477" style="stroke:#A80036;stroke-width:1.0;"/><!--MD5=[a491322cc06b1536d95205480bcc28b0]
reverse link Player to CodeBreaker--><path codeLine="6" d="M660.0824,176.3799 C642.4046,191.7767 622.4335,209.1708 606.7351,222.8436 " fill="none" id="Player-backto-CodeBreaker" style="stroke:#A80036;stroke-width:1.0;"/><polygon fill="none" points="655.4928,171.0944,675.172,163.2373,664.6878,181.6515,655.4928,171.0944" style="stroke:#A80036;stroke-width:1.0;"/><!--MD5=[ece2e1c2b52b35f6740fcf22086dc3ac]
link CodeMaker to SecretCode--><path codeLine="8" d="M734.5108,282.557 C734.5108,282.557 743.1699,307.167 747.1062,318.3544 " fill="none" id="CodeMaker-SecretCode" style="stroke:#A80036;stroke-width:1.0;"/><polygon fill="#A80036" points="751.5005,330.8436,752.2865,321.0262,749.8409,326.127,744.74,323.6815,751.5005,330.8436" style="stroke:#A80036;stroke-width:1.0;"/><line style="stroke:#A80036;stroke-width:1.0;" x1="749.8409" x2="747.1857" y1="326.127" y2="318.5805"/><polygon fill="#A80036" points="730.5279,271.2373,728.7461,278.2248,734.5108,282.557,736.2926,275.5695,730.5279,271.2373" style="stroke:#A80036;stroke-width:1.0;"/><!--MD5=[8c03fa198ae9b0dfcdb578ac2c5b7c0b]
link CodeBreaker to CodeProposal--><path codeLine="9" d="M546.014,279.6834 C546.014,279.6834 516.8439,308.5858 503.6155,321.6929 " fill="none" id="CodeBreaker-CodeProposal" style="stroke:#A80036;stroke-width:1.0;"/><polygon fill="#A80036" points="494.3801,330.8436,503.5887,327.3505,497.9319,327.3244,497.958,321.6676,494.3801,330.8436" style="stroke:#A80036;stroke-width:1.0;"/><line style="stroke:#A80036;stroke-width:1.0;" x1="497.9319" x2="503.6148" y1="327.3244" y2="321.6937"/><polygon fill="#A80036" points="554.5383,271.2373,547.4608,272.6189,546.014,279.6834,553.0915,278.3018,554.5383,271.2373" style="stroke:#A80036;stroke-width:1.0;"/><!--MD5=[b20ad1356cce6fc87b61237741ee8136]
link Turn to CodeMaker--><path codeLine="11" d="M629.7059,163.2373 C648.0794,179.9124 672.5201,202.0939 691.6347,219.4416 " fill="none" id="Turn-to-CodeMaker" style="stroke:#A80036;stroke-width:1.0;"/><polygon fill="#A80036" points="695.3832,222.8436,691.4068,213.8331,691.6807,219.4834,686.0304,219.7572,695.3832,222.8436" style="stroke:#A80036;stroke-width:1.0;"/><!--MD5=[5260f48e673e638107fdbc9d5ea2cc56]
link Turn to CodeBreaker--><path codeLine="12" d="M597.6139,163.2373 C594.0319,179.3565 589.3064,200.6212 585.5131,217.6911 " fill="none" id="Turn-to-CodeBreaker" style="stroke:#A80036;stroke-width:1.0;"/><polygon fill="#A80036" points="584.3681,222.8436,590.2253,214.9257,585.4528,217.9627,582.4159,213.1902,584.3681,222.8436" style="stroke:#A80036;stroke-width:1.0;"/><text fill="#000000" font-family="sans-serif" font-size="13" lengthAdjust="spacingAndGlyphs" textLength="36" x="545.1312" y="211.8156">0.. 15</text><!--MD5=[e3b63c0fcd22d6f4a387b3f834e5d49b]
link Board to Code--><path codeLine="14" d="M335.8884,173.6443 C335.8884,173.6443 350.7221,199.4836 357.4515,211.2059 " fill="none" id="Board-Code" style="stroke:#A80036;stroke-width:1.0;"/><polygon fill="#A80036" points="364.1324,222.8436,363.1206,213.0469,361.6431,218.5073,356.1826,217.0298,364.1324,222.8436" style="stroke:#A80036;stroke-width:1.0;"/><line style="stroke:#A80036;stroke-width:1.0;" x1="361.6431" x2="357.6601" y1="218.5073" y2="211.5693"/><polygon fill="#A80036" points="329.914,163.2373,329.4322,170.4323,335.8884,173.6443,336.3702,166.4493,329.914,163.2373" style="stroke:#A80036;stroke-width:1.0;"/><!--MD5=[8dd95aff79c51151a18c835e3410b3cd]
link Board to Result--><path codeLine="15" d="M314.9803,175.0115 C314.9803,175.0115 317.8844,240.0844 328,271 C348.7414,334.3906 399.4913,393.9321 434.3431,429.4288 " fill="none" id="Board-Result" style="stroke:#A80036;stroke-width:1.0;"/><polygon fill="#A80036" points="443.7133,438.7862,440.1716,429.5962,440.1754,435.2531,434.5185,435.2569,443.7133,438.7862" style="stroke:#A80036;stroke-width:1.0;"/><line style="stroke:#A80036;stroke-width:1.0;" x1="440.1754" x2="434.5147" y1="435.2531" y2="429.6001"/><polygon fill="#A80036" points="315.0021,163.0115,310.9912,169.0042,314.9803,175.0115,318.9912,169.0187,315.0021,163.0115" style="stroke:#A80036;stroke-width:1.0;"/><!--MD5=[37ff2eae32d91fa2c735d414bb1280fd]
reverse link Code to SecretCode--><path codeLine="17" d="M429.9502,261.6875 C502.6851,282.2513 634.1449,319.4179 707.2876,340.097 " fill="none" id="Code-backto-SecretCode" style="stroke:#A80036;stroke-width:1.0;"/><polygon fill="none" points="427.5811,268.2921,410.2399,256.1149,431.3899,254.8202,427.5811,268.2921" style="stroke:#A80036;stroke-width:1.0;"/><!--MD5=[8821dbb2761ced7b58eca0634e08a8d2]
reverse link Code to CodeProposal--><path codeLine="18" d="M411.6499,286.5021 C424.3051,301.3582 438.3072,317.7954 449.4223,330.8436 " fill="none" id="Code-backto-CodeProposal" style="stroke:#A80036;stroke-width:1.0;"/><polygon fill="none" points="406.2872,291.0015,398.6466,271.2373,416.9447,281.9229,406.2872,291.0015" style="stroke:#A80036;stroke-width:1.0;"/><!--MD5=[0eb889691679fc9d25566ae088f53edb]
link Code to Token--><path codeLine="19" d="M374.134,271.088 C364.7705,329.4301 340.8988,478.1689 330.717,541.6092 " fill="none" id="Code-to-Token" style="stroke:#A80036;stroke-width:1.0;"/><polygon fill="#A80036" points="329.8914,546.7535,335.2672,538.5012,330.6838,541.8167,327.3683,537.2333,329.8914,546.7535" style="stroke:#A80036;stroke-width:1.0;"/><text fill="#000000" font-family="sans-serif" font-size="13" lengthAdjust="spacingAndGlyphs" textLength="8" x="321.8649" y="536.0984">5</text><!--MD5=[8e442680597c5067d47e15901b63db4d]
link SecretCode to WinnerCodeBreaker--><path codeLine="20" d="M760,379.3581 C760,419.3281 760,498.6806 760,541.6733 " fill="none" id="SecretCode-to-WinnerCodeBreaker" style="stroke:#A80036;stroke-width:1.0;"/><polygon fill="#A80036" points="760,546.7309,764,537.7309,760,541.7309,756,537.7309,760,546.7309" style="stroke:#A80036;stroke-width:1.0;"/><!--MD5=[18730f59dfaae281c824134a841b42ca]
link Token to Colour--><path codeLine="22" d="M326,607.2373 C326,607.2373 326,630.8868 326,641.5426 " fill="none" id="Token-Colour" style="stroke:#A80036;stroke-width:1.0;"/><polygon fill="#A80036" points="326,654.8436,330,645.8436,326,649.8436,322,645.8436,326,654.8436" style="stroke:#A80036;stroke-width:1.0;"/><line style="stroke:#A80036;stroke-width:1.0;" x1="326" x2="326.0001" y1="649.8436" y2="641.8436"/><polygon fill="#A80036" points="326,595.2373,322,601.2373,326,607.2373,330,601.2373,326,595.2373" style="stroke:#A80036;stroke-width:1.0;"/><!--MD5=[03db1de569ad05e673b5e9c66559de35]
link Token to Position--><path codeLine="23" d="M343.679,595.1321 C365.9368,624.0782 406.6625,672.5051 451,703 C477.4098,721.1644 556.6468,751.6864 607.9586,770.509 " fill="none" id="Token-to-Position" style="stroke:#A80036;stroke-width:1.0;"/><polygon fill="#A80036" points="612.8344,772.2933,605.7571,765.4441,608.1389,770.575,603.0079,772.9568,612.8344,772.2933" style="stroke:#A80036;stroke-width:1.0;"/><!--MD5=[594d509c9355fcbd55d722f1b8f4c8a4]
reverse link Colour to Red--><path codeLine="25" d="M270.4269,695.4245 C220.1757,710.8917 144.5494,735.7118 81,763 C75.2062,765.4879 69.1415,768.4096 63.3873,771.342 " fill="none" id="Colour-backto-Red" style="stroke:#A80036;stroke-width:1.0;"/><polygon fill="none" points="268.4832,688.6991,289.6544,689.5819,272.5536,702.0944,268.4832,688.6991" style="stroke:#A80036;stroke-width:1.0;"/><!--MD5=[e3d4d46bbf4b9e55f878337af24af16f]
reverse link Colour to Blue--><path codeLine="26" d="M272.0506,708.4269 C235.2085,728.5226 187.7863,754.3893 157.6292,770.8386 " fill="none" id="Colour-backto-Blue" style="stroke:#A80036;stroke-width:1.0;"/><polygon fill="none" points="268.7738,702.2407,289.6837,698.8089,275.4778,714.5312,268.7738,702.2407" style="stroke:#A80036;stroke-width:1.0;"/><!--MD5=[c63649c9b8a8f5a2c34bd7a8ffd458ef]
reverse link Colour to Green--><path codeLine="27" d="M290.1555,718.5021 C276.675,733.3582 261.7597,749.7954 249.9197,762.8436 " fill="none" id="Colour-backto-Green" style="stroke:#A80036;stroke-width:1.0;"/><polygon fill="none" points="285.3831,713.3446,304.0069,703.2373,295.751,722.7525,285.3831,713.3446" style="stroke:#A80036;stroke-width:1.0;"/><!--MD5=[6c81e8aeeb5eddbf2c6e640b48ab5daf]
reverse link Colour to Yellow--><path codeLine="28" d="M328.8707,723.2911 C329.7474,736.8171 330.6786,751.1835 331.4343,762.8436 " fill="none" id="Colour-backto-Yellow" style="stroke:#A80036;stroke-width:1.0;"/><polygon fill="none" points="321.8793,723.6482,327.5709,703.2373,335.85,722.7426,321.8793,723.6482" style="stroke:#A80036;stroke-width:1.0;"/><!--MD5=[dab85d4ff89d9ecfbbf917ec9ee8669a]
reverse link Colour to Pink--><path codeLine="29" d="M363.842,717.556 C378.6636,732.6572 395.2119,749.5178 408.2909,762.8436 " fill="none" id="Colour-backto-Pink" style="stroke:#A80036;stroke-width:1.0;"/><polygon fill="none" points="358.8021,722.4143,349.7885,703.2373,368.7937,712.6077,358.8021,722.4143" style="stroke:#A80036;stroke-width:1.0;"/><!--MD5=[36b3e1c9707bbaf5ee8fb210d72fbf33]
reverse link Colour to Brown--><path codeLine="30" d="M379.9635,707.4296 C416.6128,726.7375 464.0257,751.716 495.8685,768.4917 " fill="none" id="Colour-backto-Brown" style="stroke:#A80036;stroke-width:1.0;"/><polygon fill="none" points="376.6099,713.5748,362.178,698.0596,383.1354,701.1886,376.6099,713.5748" style="stroke:#A80036;stroke-width:1.0;"/><!--MD5=[358fb04c46986e40ca2872240946c64e]
link CodeProposal to Result--><path codeLine="32" d="M470,379.2373 C470,395.3565 470,416.6212 470,433.6911 " fill="none" id="CodeProposal-to-Result" style="stroke:#A80036;stroke-width:1.0;"/><polygon fill="#A80036" points="470,438.8436,474,429.8436,470,433.8436,466,429.8436,470,438.8436" style="stroke:#A80036;stroke-width:1.0;"/><!--MD5=[6093fb4f1e2329c4343dd690507550d0]
link Result to Match--><path codeLine="34" d="M457.1718,498.5239 C457.1718,498.5239 448.273,523.167 444.2331,534.3544 " fill="none" id="Result-Match" style="stroke:#A80036;stroke-width:1.0;"/><polygon fill="#A80036" points="439.7231,546.8436,446.5422,539.7372,441.4213,542.1408,439.0177,537.02,439.7231,546.8436" style="stroke:#A80036;stroke-width:1.0;"/><line style="stroke:#A80036;stroke-width:1.0;" x1="441.4213" x2="444.1386" y1="542.1408" y2="534.6164"/><polygon fill="#A80036" points="461.2476,487.2373,455.4475,491.522,457.1718,498.5239,462.9719,494.2392,461.2476,487.2373" style="stroke:#A80036;stroke-width:1.0;"/><text fill="#000000" font-family="sans-serif" font-size="13" lengthAdjust="spacingAndGlyphs" textLength="28" x="410.3709" y="535.8156">0.. 5</text><!--MD5=[9c579e24e29930d04aab99f5e22a11fa]
reverse link Result to WinnerCodeBreaker--><path codeLine="35" d="M524.5418,483.3121 C573.0724,501.3856 644.1138,527.8424 695.4595,546.9642 " fill="none" id="Result-backto-WinnerCodeBreaker" style="stroke:#A80036;stroke-width:1.0;"/><polygon fill="none" points="521.8592,489.7828,505.5597,476.2429,526.7452,476.6631,521.8592,489.7828" style="stroke:#A80036;stroke-width:1.0;"/><!--MD5=[0d89b016e2787c201ead8843f8ef163e]
link WinnerCodeBreaker to BlackMatch--><path codeLine="36" d="M737.558,595.2373 C722.2468,611.7734 701.9217,633.7246 685.9196,651.0069 " fill="none" id="WinnerCodeBreaker-to-BlackMatch" style="stroke:#A80036;stroke-width:1.0;"/><polygon fill="#A80036" points="682.3671,654.8436,691.4168,650.9573,685.7641,651.1748,685.5466,645.5221,682.3671,654.8436" style="stroke:#A80036;stroke-width:1.0;"/><text fill="#000000" font-family="sans-serif" font-size="13" lengthAdjust="spacingAndGlyphs" textLength="8" x="679.0737" y="643.8156">5</text><!--MD5=[9b84512bd058dce16e7704de1a7a845e]
link CodeBreaker to WinnerCodeBreaker--><path codeLine="37" d="M592.4565,271.088 C625.1798,329.6644 708.8089,479.3651 744.0058,542.3694 " fill="none" id="CodeBreaker-to-WinnerCodeBreaker" style="stroke:#A80036;stroke-width:1.0;"/><polygon fill="#A80036" points="746.4549,546.7535,745.5576,536.9456,744.0164,542.3885,738.5735,540.8472,746.4549,546.7535" style="stroke:#A80036;stroke-width:1.0;"/><!--MD5=[60362e391c849c65e1a0bfe20b31f476]
reverse link Result to WinnerCodeMaker--><path codeLine="39" d="M507.583,502.0285 C522.0078,517.0081 538.0397,533.6566 550.7383,546.8436 " fill="none" id="Result-backto-WinnerCodeMaker" style="stroke:#A80036;stroke-width:1.0;"/><polygon fill="none" points="502.1702,506.4992,493.3396,487.2373,512.2547,496.7882,502.1702,506.4992" style="stroke:#A80036;stroke-width:1.0;"/><!--MD5=[1fb80c1abaa2bfa0904971a3ff1ab4e5]
link CodeMaker to WinnerCodeMaker--><path codeLine="40" d="M710.9969,271.088 C684.2933,329.5472 616.1313,478.7667 587.2513,541.9904 " fill="none" id="CodeMaker-to-WinnerCodeMaker" style="stroke:#A80036;stroke-width:1.0;"/><polygon fill="#A80036" points="585.0756,546.7535,592.4535,540.2292,587.1531,542.2056,585.1768,536.9052,585.0756,546.7535" style="stroke:#A80036;stroke-width:1.0;"/><!--MD5=[8d07429bed5897ee03c8a8f82827007d]
link WinnerCodeMaker to WhiteMatch--><path codeLine="41" d="M562.1058,595.2373 C554.1272,611.4955 543.5798,632.9882 535.1669,650.1316 " fill="none" id="WinnerCodeMaker-to-WhiteMatch" style="stroke:#A80036;stroke-width:1.0;"/><polygon fill="#A80036" points="532.8545,654.8436,540.4103,648.5261,535.0572,650.3549,533.2284,645.0018,532.8545,654.8436" style="stroke:#A80036;stroke-width:1.0;"/><text fill="#000000" font-family="sans-serif" font-size="13" lengthAdjust="spacingAndGlyphs" textLength="28" x="504.3047" y="643.8156">0.. 5</text><!--MD5=[2b6b59c23302c0c8f6544d2be4cb62a9]
reverse link Match to WhiteMatch--><path codeLine="43" d="M464.3139,610.9767 C476.5896,625.7075 490.1119,641.9342 500.8697,654.8436 " fill="none" id="Match-backto-WhiteMatch" style="stroke:#A80036;stroke-width:1.0;"/><polygon fill="none" points="458.6239,615.0831,451.1978,595.2373,469.379,606.1205,458.6239,615.0831" style="stroke:#A80036;stroke-width:1.0;"/><!--MD5=[652e67bc44c2a881aaf713af939bd7c2]
reverse link Match to BlackMatch--><path codeLine="44" d="M484.3929,596.1809 C521.9516,613.8942 571.9175,637.4589 608.9463,654.9223 " fill="none" id="Match-backto-BlackMatch" style="stroke:#A80036;stroke-width:1.0;"/><polygon fill="none" points="481.3827,602.5008,466.2794,587.6383,487.3545,589.8383,481.3827,602.5008" style="stroke:#A80036;stroke-width:1.0;"/><!--MD5=[d2957c39362310a7c15145b5cf03284c]
link Match to Colour--><path codeLine="45" d="M407.436,595.2373 C391.3592,611.7734 370.0178,633.7246 353.2155,651.0069 " fill="none" id="Match-to-Colour" style="stroke:#A80036;stroke-width:1.0;"/><polygon fill="#A80036" points="349.4854,654.8436,358.6271,651.179,352.9708,651.2586,352.8911,645.6023,349.4854,654.8436" style="stroke:#A80036;stroke-width:1.0;"/><!--MD5=[f8ffc333ca014b0c801a842ac3c9750f]
link BlackMatch to Position--><path codeLine="46" d="M658.6535,703.2373 C657.758,719.3565 656.5766,740.6212 655.6283,757.6911 " fill="none" id="BlackMatch-to-Position" style="stroke:#A80036;stroke-width:1.0;"/><polygon fill="#A80036" points="655.342,762.8436,659.8352,754.0794,655.6194,757.8513,651.8475,753.6355,655.342,762.8436" style="stroke:#A80036;stroke-width:1.0;"/><!--MD5=[4f106abd91f6d4ab7a28225dbc1531ca]
reverse link Action to PutCodeSecret--><path codeLine="48" d="M802.5747,73.3649 C809.744,87.4428 817.4774,102.6283 823.6981,114.8436 " fill="none" id="Action-backto-PutCodeSecret" style="stroke:#A80036;stroke-width:1.0;"/><polygon fill="none" points="796.1814,76.236,793.3431,55.2373,808.6569,69.8827,796.1814,76.236" style="stroke:#A80036;stroke-width:1.0;"/><!--MD5=[153e394459e3ee50661db2822e285f99]
link PutCodeSecret to CodeMaker--><path codeLine="49" d="M810.4162,163.2373 C792.9614,179.7734 769.7907,201.7246 751.5483,219.0069 " fill="none" id="PutCodeSecret-to-CodeMaker" style="stroke:#A80036;stroke-width:1.0;"/><polygon fill="#A80036" points="747.4984,222.8436,756.783,219.5578,751.1282,219.4049,751.2811,213.7501,747.4984,222.8436" style="stroke:#A80036;stroke-width:1.0;"/><!--MD5=[3cb6805bc05b21499673429037446445]
link PutCodeSecret to SecretCode--><path codeLine="50" d="M827.8877,163.3919 C819.0138,189.9313 804.2811,233.5797 791,271 C784.4976,289.321 776.95,309.7886 770.9303,325.9331 " fill="none" id="PutCodeSecret-to-SecretCode" style="stroke:#A80036;stroke-width:1.0;"/><polygon fill="#A80036" points="769.114,330.7975,776.0095,323.7653,770.863,326.1134,768.5149,320.9669,769.114,330.7975" style="stroke:#A80036;stroke-width:1.0;"/><!--MD5=[ebbc1f908c5254511d0d021700d50951]
reverse link Action to MakeCodeProposal--><path codeLine="52" d="M726.3677,49.4962 C673.0064,67.5621 591.5217,95.1494 533.1281,114.919 " fill="none" id="Action-backto-MakeCodeProposal" style="stroke:#A80036;stroke-width:1.0;"/><polygon fill="none" points="724.1467,42.8579,745.3352,43.0746,728.6362,56.1186,724.1467,42.8579" style="stroke:#A80036;stroke-width:1.0;"/><!--MD5=[74bda1788b618b4c52327506f611fa11]
link MakeCodeProposal to CodeBreaker--><path codeLine="53" d="M488.2571,163.2373 C506.3217,179.9124 530.3517,202.0939 549.145,219.4416 " fill="none" id="MakeCodeProposal-to-CodeBreaker" style="stroke:#A80036;stroke-width:1.0;"/><polygon fill="#A80036" points="552.8306,222.8436,548.9304,213.7999,549.1565,219.4522,543.5042,219.6784,552.8306,222.8436" style="stroke:#A80036;stroke-width:1.0;"/><!--MD5=[50c6e34a6741ee7ca749278b312c6a30]
link MakeCodeProposal to CodeProposal--><path codeLine="54" d="M462.9022,163.3581 C464.3825,203.3281 467.3215,282.6806 468.9138,325.6733 " fill="none" id="MakeCodeProposal-to-CodeProposal" style="stroke:#A80036;stroke-width:1.0;"/><polygon fill="#A80036" points="469.1011,330.7309,472.7651,321.589,468.916,325.7343,464.7706,321.8852,469.1011,330.7309" style="stroke:#A80036;stroke-width:1.0;"/><!--MD5=[f8e723cc90c6d7110855f26bff054646]
@startuml
Mastermind *-down-> Board
Mastermind *-down-> "2" Player
Mastermind *-down-> Turn

Player <|- - CodeMaker
Player <|- - CodeBreaker

CodeMaker *-down-> SecretCode
CodeBreaker *-down-> CodeProposal

Turn -down-> CodeMaker
Turn -down-> "0.. 15" CodeBreaker

Board *-down-> Code
Board *-down-> Result

Code <|-down- SecretCode
Code <|-down- CodeProposal
Code -down-> "5" Token
SecretCode -down-> WinnerCodeBreaker

Token *- -> Colour
Token - -> Position

Colour <|-down- Red
Colour <|-down- Blue
Colour <|-down- Green
Colour <|-down- Yellow
Colour <|-down- Pink
Colour <|-down- Brown

CodeProposal - -> Result

Result *-down-> "0.. 5" Match
Result <|-down- WinnerCodeBreaker
WinnerCodeBreaker -down-> "5" BlackMatch
CodeBreaker -down-> WinnerCodeBreaker

Result <|-down- WinnerCodeMaker
CodeMaker -down-> WinnerCodeMaker
WinnerCodeMaker -down-> "0.. 5" WhiteMatch

Match <|- - WhiteMatch
Match <|- - BlackMatch
Match -down-> Colour
BlackMatch -down-> Position

Action <|-down- PutCodeSecret
PutCodeSecret -down-> CodeMaker
PutCodeSecret -down-> SecretCode

Action <|-down- MakeCodeProposal
MakeCodeProposal -down-> CodeBreaker
MakeCodeProposal -down-> CodeProposal
@enduml

PlantUML version 1.2020.22(Sun Dec 06 09:36:27 UTC 2020)
(GPL source distribution)
Java Runtime: OpenJDK Runtime Environment
JVM: OpenJDK 64-Bit Server VM
Default Encoding: UTF-8
Language: en
Country: US
--></g></svg>