<?xml version="1.0" encoding="UTF-8" standalone="no"?><svg xmlns="http://www.w3.org/2000/svg" xmlns:xlink="http://www.w3.org/1999/xlink" contentScriptType="application/ecmascript" contentStyleType="text/css" height="825px" preserveAspectRatio="none" style="width:877px;height:825px;" version="1.1" viewBox="0 0 877 825" width="877px" zoomAndPan="magnify"><defs><filter height="300%" id="f1x0cwma5ekj13" width="300%" x="-1" y="-1"><feGaussianBlur result="blurOut" stdDeviation="2.0"/><feColorMatrix in="blurOut" result="blurOut2" type="matrix" values="0 0 0 0 0 0 0 0 0 0 0 0 0 0 0 0 0 0 .4 0"/><feOffset dx="4.0" dy="4.0" in="blurOut2" result="blurOut3"/><feBlend in="SourceGraphic" in2="blurOut3" mode="normal"/></filter></defs><g><!--MD5=[7283a9eed84464550b6d5ebf39c68b05]
class Mastermind--><rect fill="#FEFECE" filter="url(#f1x0cwma5ekj13)" height="48" id="Mastermind" style="stroke:#A80036;stroke-width:1.5;" width="100" x="531.5" y="7"/><ellipse cx="546.5" cy="23" fill="#ADD1B2" rx="11" ry="11" style="stroke:#A80036;stroke-width:1.0;"/><path d="M546.2969,29.5 Q543.8125,29.5 542.4844,27.8281 Q541.1719,26.1563 541.1719,23 Q541.1719,19.8438 542.4844,18.1875 Q543.8125,16.5 546.2969,16.5 Q547.0156,16.5 547.6719,16.6563 Q548.3125,16.8125 548.875,17.125 L548.875,19.9219 Q548.5156,19.5781 548.2188,19.3906 Q547.9219,19.1875 547.6563,19.0781 Q547.3438,18.9375 547.0313,18.875 Q546.7344,18.8125 546.4219,18.8125 Q545.0938,18.8125 544.4063,19.875 Q543.7188,20.9531 543.7188,23 Q543.7188,25.0781 544.4063,26.125 Q545.0938,27.1875 546.4219,27.1875 Q547.0625,27.1875 547.6563,26.9219 Q547.9531,26.7813 548.2344,26.5938 Q548.5313,26.4063 548.875,26.0781 L548.875,28.875 Q548.2969,29.1875 547.6563,29.3438 Q547.0313,29.5 546.2969,29.5 Z " fill="#000000"/><text fill="#000000" font-family="sans-serif" font-size="12" lengthAdjust="spacing" textLength="68" x="560.5" y="27.656">Mastermind</text><line style="stroke:#A80036;stroke-width:1.5;" x1="532.5" x2="630.5" y1="39" y2="39"/><line style="stroke:#A80036;stroke-width:1.5;" x1="532.5" x2="630.5" y1="47" y2="47"/><!--MD5=[9563755d011c5cec7ec66dc53565a59e]
class Board--><rect fill="#FEFECE" filter="url(#f1x0cwma5ekj13)" height="48" id="Board" style="stroke:#A80036;stroke-width:1.5;" width="66" x="274.5" y="115"/><ellipse cx="289.5" cy="131" fill="#ADD1B2" rx="11" ry="11" style="stroke:#A80036;stroke-width:1.0;"/><path d="M289.2969,137.5 Q286.8125,137.5 285.4844,135.8281 Q284.1719,134.1563 284.1719,131 Q284.1719,127.8438 285.4844,126.1875 Q286.8125,124.5 289.2969,124.5 Q290.0156,124.5 290.6719,124.6563 Q291.3125,124.8125 291.875,125.125 L291.875,127.9219 Q291.5156,127.5781 291.2188,127.3906 Q290.9219,127.1875 290.6563,127.0781 Q290.3438,126.9375 290.0313,126.875 Q289.7344,126.8125 289.4219,126.8125 Q288.0938,126.8125 287.4063,127.875 Q286.7188,128.9531 286.7188,131 Q286.7188,133.0781 287.4063,134.125 Q288.0938,135.1875 289.4219,135.1875 Q290.0625,135.1875 290.6563,134.9219 Q290.9531,134.7813 291.2344,134.5938 Q291.5313,134.4063 291.875,134.0781 L291.875,136.875 Q291.2969,137.1875 290.6563,137.3438 Q290.0313,137.5 289.2969,137.5 Z " fill="#000000"/><text fill="#000000" font-family="sans-serif" font-size="12" lengthAdjust="spacing" textLength="34" x="303.5" y="135.656">Board</text><line style="stroke:#A80036;stroke-width:1.5;" x1="275.5" x2="339.5" y1="147" y2="147"/><line style="stroke:#A80036;stroke-width:1.5;" x1="275.5" x2="339.5" y1="155" y2="155"/><!--MD5=[2cb47ba637a0d19583e6199456f6ad0b]
class Player--><rect fill="#FEFECE" filter="url(#f1x0cwma5ekj13)" height="48" id="Player" style="stroke:#A80036;stroke-width:1.5;" width="67" x="646" y="115"/><ellipse cx="661" cy="131" fill="#ADD1B2" rx="11" ry="11" style="stroke:#A80036;stroke-width:1.0;"/><path d="M660.7969,137.5 Q658.3125,137.5 656.9844,135.8281 Q655.6719,134.1563 655.6719,131 Q655.6719,127.8438 656.9844,126.1875 Q658.3125,124.5 660.7969,124.5 Q661.5156,124.5 662.1719,124.6563 Q662.8125,124.8125 663.375,125.125 L663.375,127.9219 Q663.0156,127.5781 662.7188,127.3906 Q662.4219,127.1875 662.1563,127.0781 Q661.8438,126.9375 661.5313,126.875 Q661.2344,126.8125 660.9219,126.8125 Q659.5938,126.8125 658.9063,127.875 Q658.2188,128.9531 658.2188,131 Q658.2188,133.0781 658.9063,134.125 Q659.5938,135.1875 660.9219,135.1875 Q661.5625,135.1875 662.1563,134.9219 Q662.4531,134.7813 662.7344,134.5938 Q663.0313,134.4063 663.375,134.0781 L663.375,136.875 Q662.7969,137.1875 662.1563,137.3438 Q661.5313,137.5 660.7969,137.5 Z " fill="#000000"/><text fill="#000000" font-family="sans-serif" font-size="12" lengthAdjust="spacing" textLength="35" x="675" y="135.656">Player</text><line style="stroke:#A80036;stroke-width:1.5;" x1="647" x2="712" y1="147" y2="147"/><line style="stroke:#A80036;stroke-width:1.5;" x1="647" x2="712" y1="155" y2="155"/><!--MD5=[dd91eae41778c45e12552e5329e240e8]
class Turn--><rect fill="#FEFECE" filter="url(#f1x0cwma5ekj13)" height="48" id="Turn" style="stroke:#A80036;stroke-width:1.5;" width="58" x="552.5" y="115"/><ellipse cx="567.5" cy="131" fill="#ADD1B2" rx="11" ry="11" style="stroke:#A80036;stroke-width:1.0;"/><path d="M567.2969,137.5 Q564.8125,137.5 563.4844,135.8281 Q562.1719,134.1563 562.1719,131 Q562.1719,127.8438 563.4844,126.1875 Q564.8125,124.5 567.2969,124.5 Q568.0156,124.5 568.6719,124.6563 Q569.3125,124.8125 569.875,125.125 L569.875,127.9219 Q569.5156,127.5781 569.2188,127.3906 Q568.9219,127.1875 568.6563,127.0781 Q568.3438,126.9375 568.0313,126.875 Q567.7344,126.8125 567.4219,126.8125 Q566.0938,126.8125 565.4063,127.875 Q564.7188,128.9531 564.7188,131 Q564.7188,133.0781 565.4063,134.125 Q566.0938,135.1875 567.4219,135.1875 Q568.0625,135.1875 568.6563,134.9219 Q568.9531,134.7813 569.2344,134.5938 Q569.5313,134.4063 569.875,134.0781 L569.875,136.875 Q569.2969,137.1875 568.6563,137.3438 Q568.0313,137.5 567.2969,137.5 Z " fill="#000000"/><text fill="#000000" font-family="sans-serif" font-size="12" lengthAdjust="spacing" textLength="26" x="581.5" y="135.656">Turn</text><line style="stroke:#A80036;stroke-width:1.5;" x1="553.5" x2="609.5" y1="147" y2="147"/><line style="stroke:#A80036;stroke-width:1.5;" x1="553.5" x2="609.5" y1="155" y2="155"/><!--MD5=[1a09df81ec6c7d9cbe6ced275dd3e291]
class CodeMaker--><rect fill="#FEFECE" filter="url(#f1x0cwma5ekj13)" height="48" id="CodeMaker" style="stroke:#A80036;stroke-width:1.5;" width="97" x="646" y="223"/><ellipse cx="661" cy="239" fill="#ADD1B2" rx="11" ry="11" style="stroke:#A80036;stroke-width:1.0;"/><path d="M660.7969,245.5 Q658.3125,245.5 656.9844,243.8281 Q655.6719,242.1563 655.6719,239 Q655.6719,235.8438 656.9844,234.1875 Q658.3125,232.5 660.7969,232.5 Q661.5156,232.5 662.1719,232.6563 Q662.8125,232.8125 663.375,233.125 L663.375,235.9219 Q663.0156,235.5781 662.7188,235.3906 Q662.4219,235.1875 662.1563,235.0781 Q661.8438,234.9375 661.5313,234.875 Q661.2344,234.8125 660.9219,234.8125 Q659.5938,234.8125 658.9063,235.875 Q658.2188,236.9531 658.2188,239 Q658.2188,241.0781 658.9063,242.125 Q659.5938,243.1875 660.9219,243.1875 Q661.5625,243.1875 662.1563,242.9219 Q662.4531,242.7813 662.7344,242.5938 Q663.0313,242.4063 663.375,242.0781 L663.375,244.875 Q662.7969,245.1875 662.1563,245.3438 Q661.5313,245.5 660.7969,245.5 Z " fill="#000000"/><text fill="#000000" font-family="sans-serif" font-size="12" lengthAdjust="spacing" textLength="65" x="675" y="243.656">CodeMaker</text><line style="stroke:#A80036;stroke-width:1.5;" x1="647" x2="742" y1="255" y2="255"/><line style="stroke:#A80036;stroke-width:1.5;" x1="647" x2="742" y1="263" y2="263"/><!--MD5=[daf47d429e3758f68e985f184238aa5d]
class CodeBreaker--><rect fill="#FEFECE" filter="url(#f1x0cwma5ekj13)" height="48" id="CodeBreaker" style="stroke:#A80036;stroke-width:1.5;" width="106" x="504.5" y="223"/><ellipse cx="519.5" cy="239" fill="#ADD1B2" rx="11" ry="11" style="stroke:#A80036;stroke-width:1.0;"/><path d="M519.2969,245.5 Q516.8125,245.5 515.4844,243.8281 Q514.1719,242.1563 514.1719,239 Q514.1719,235.8438 515.4844,234.1875 Q516.8125,232.5 519.2969,232.5 Q520.0156,232.5 520.6719,232.6563 Q521.3125,232.8125 521.875,233.125 L521.875,235.9219 Q521.5156,235.5781 521.2188,235.3906 Q520.9219,235.1875 520.6563,235.0781 Q520.3438,234.9375 520.0313,234.875 Q519.7344,234.8125 519.4219,234.8125 Q518.0938,234.8125 517.4063,235.875 Q516.7188,236.9531 516.7188,239 Q516.7188,241.0781 517.4063,242.125 Q518.0938,243.1875 519.4219,243.1875 Q520.0625,243.1875 520.6563,242.9219 Q520.9531,242.7813 521.2344,242.5938 Q521.5313,242.4063 521.875,242.0781 L521.875,244.875 Q521.2969,245.1875 520.6563,245.3438 Q520.0313,245.5 519.2969,245.5 Z " fill="#000000"/><text fill="#000000" font-family="sans-serif" font-size="12" lengthAdjust="spacing" textLength="74" x="533.5" y="243.656">CodeBreaker</text><line style="stroke:#A80036;stroke-width:1.5;" x1="505.5" x2="609.5" y1="255" y2="255"/><line style="stroke:#A80036;stroke-width:1.5;" x1="505.5" x2="609.5" y1="263" y2="263"/><!--MD5=[adaa3654325cb0877e02ae004417f851]
class SecretCode--><rect fill="#FEFECE" filter="url(#f1x0cwma5ekj13)" height="48" id="SecretCode" style="stroke:#A80036;stroke-width:1.5;" width="97" x="685" y="331"/><ellipse cx="700" cy="347" fill="#ADD1B2" rx="11" ry="11" style="stroke:#A80036;stroke-width:1.0;"/><path d="M699.7969,353.5 Q697.3125,353.5 695.9844,351.8281 Q694.6719,350.1563 694.6719,347 Q694.6719,343.8438 695.9844,342.1875 Q697.3125,340.5 699.7969,340.5 Q700.5156,340.5 701.1719,340.6563 Q701.8125,340.8125 702.375,341.125 L702.375,343.9219 Q702.0156,343.5781 701.7188,343.3906 Q701.4219,343.1875 701.1563,343.0781 Q700.8438,342.9375 700.5313,342.875 Q700.2344,342.8125 699.9219,342.8125 Q698.5938,342.8125 697.9063,343.875 Q697.2188,344.9531 697.2188,347 Q697.2188,349.0781 697.9063,350.125 Q698.5938,351.1875 699.9219,351.1875 Q700.5625,351.1875 701.1563,350.9219 Q701.4531,350.7813 701.7344,350.5938 Q702.0313,350.4063 702.375,350.0781 L702.375,352.875 Q701.7969,353.1875 701.1563,353.3438 Q700.5313,353.5 699.7969,353.5 Z " fill="#000000"/><text fill="#000000" font-family="sans-serif" font-size="12" lengthAdjust="spacing" textLength="65" x="714" y="351.656">SecretCode</text><line style="stroke:#A80036;stroke-width:1.5;" x1="686" x2="781" y1="363" y2="363"/><line style="stroke:#A80036;stroke-width:1.5;" x1="686" x2="781" y1="371" y2="371"/><!--MD5=[474fc92922596bfda8c6a0594b5ffddd]
class CodeProposal--><rect fill="#FEFECE" filter="url(#f1x0cwma5ekj13)" height="48" id="CodeProposal" style="stroke:#A80036;stroke-width:1.5;" width="110" x="397.5" y="331"/><ellipse cx="412.5" cy="347" fill="#ADD1B2" rx="11" ry="11" style="stroke:#A80036;stroke-width:1.0;"/><path d="M412.2969,353.5 Q409.8125,353.5 408.4844,351.8281 Q407.1719,350.1563 407.1719,347 Q407.1719,343.8438 408.4844,342.1875 Q409.8125,340.5 412.2969,340.5 Q413.0156,340.5 413.6719,340.6563 Q414.3125,340.8125 414.875,341.125 L414.875,343.9219 Q414.5156,343.5781 414.2188,343.3906 Q413.9219,343.1875 413.6563,343.0781 Q413.3438,342.9375 413.0313,342.875 Q412.7344,342.8125 412.4219,342.8125 Q411.0938,342.8125 410.4063,343.875 Q409.7188,344.9531 409.7188,347 Q409.7188,349.0781 410.4063,350.125 Q411.0938,351.1875 412.4219,351.1875 Q413.0625,351.1875 413.6563,350.9219 Q413.9531,350.7813 414.2344,350.5938 Q414.5313,350.4063 414.875,350.0781 L414.875,352.875 Q414.2969,353.1875 413.6563,353.3438 Q413.0313,353.5 412.2969,353.5 Z " fill="#000000"/><text fill="#000000" font-family="sans-serif" font-size="12" lengthAdjust="spacing" textLength="78" x="426.5" y="351.656">CodeProposal</text><line style="stroke:#A80036;stroke-width:1.5;" x1="398.5" x2="506.5" y1="363" y2="363"/><line style="stroke:#A80036;stroke-width:1.5;" x1="398.5" x2="506.5" y1="371" y2="371"/><!--MD5=[ba580110b1777f63e0f1dfe3fcefdac0]
class Code--><rect fill="#FEFECE" filter="url(#f1x0cwma5ekj13)" height="48" id="Code" style="stroke:#A80036;stroke-width:1.5;" width="61" x="332" y="223"/><ellipse cx="347" cy="239" fill="#ADD1B2" rx="11" ry="11" style="stroke:#A80036;stroke-width:1.0;"/><path d="M346.7969,245.5 Q344.3125,245.5 342.9844,243.8281 Q341.6719,242.1563 341.6719,239 Q341.6719,235.8438 342.9844,234.1875 Q344.3125,232.5 346.7969,232.5 Q347.5156,232.5 348.1719,232.6563 Q348.8125,232.8125 349.375,233.125 L349.375,235.9219 Q349.0156,235.5781 348.7188,235.3906 Q348.4219,235.1875 348.1563,235.0781 Q347.8438,234.9375 347.5313,234.875 Q347.2344,234.8125 346.9219,234.8125 Q345.5938,234.8125 344.9063,235.875 Q344.2188,236.9531 344.2188,239 Q344.2188,241.0781 344.9063,242.125 Q345.5938,243.1875 346.9219,243.1875 Q347.5625,243.1875 348.1563,242.9219 Q348.4531,242.7813 348.7344,242.5938 Q349.0313,242.4063 349.375,242.0781 L349.375,244.875 Q348.7969,245.1875 348.1563,245.3438 Q347.5313,245.5 346.7969,245.5 Z " fill="#000000"/><text fill="#000000" font-family="sans-serif" font-size="12" lengthAdjust="spacing" textLength="29" x="361" y="243.656">Code</text><line style="stroke:#A80036;stroke-width:1.5;" x1="333" x2="392" y1="255" y2="255"/><line style="stroke:#A80036;stroke-width:1.5;" x1="333" x2="392" y1="263" y2="263"/><!--MD5=[2741598bdf59a7d7e0d5c97658fd3022]
class Result--><rect fill="#FEFECE" filter="url(#f1x0cwma5ekj13)" height="48" id="Result" style="stroke:#A80036;stroke-width:1.5;" width="66" x="419.5" y="439"/><ellipse cx="434.5" cy="455" fill="#ADD1B2" rx="11" ry="11" style="stroke:#A80036;stroke-width:1.0;"/><path d="M434.2969,461.5 Q431.8125,461.5 430.4844,459.8281 Q429.1719,458.1563 429.1719,455 Q429.1719,451.8438 430.4844,450.1875 Q431.8125,448.5 434.2969,448.5 Q435.0156,448.5 435.6719,448.6563 Q436.3125,448.8125 436.875,449.125 L436.875,451.9219 Q436.5156,451.5781 436.2188,451.3906 Q435.9219,451.1875 435.6563,451.0781 Q435.3438,450.9375 435.0313,450.875 Q434.7344,450.8125 434.4219,450.8125 Q433.0938,450.8125 432.4063,451.875 Q431.7188,452.9531 431.7188,455 Q431.7188,457.0781 432.4063,458.125 Q433.0938,459.1875 434.4219,459.1875 Q435.0625,459.1875 435.6563,458.9219 Q435.9531,458.7813 436.2344,458.5938 Q436.5313,458.4063 436.875,458.0781 L436.875,460.875 Q436.2969,461.1875 435.6563,461.3438 Q435.0313,461.5 434.2969,461.5 Z " fill="#000000"/><text fill="#000000" font-family="sans-serif" font-size="12" lengthAdjust="spacing" textLength="34" x="448.5" y="459.656">Result</text><line style="stroke:#A80036;stroke-width:1.5;" x1="420.5" x2="484.5" y1="471" y2="471"/><line style="stroke:#A80036;stroke-width:1.5;" x1="420.5" x2="484.5" y1="479" y2="479"/><!--MD5=[d8c8cfd5ca149094f5b67f9f607a5ec7]
class Token--><rect fill="#FEFECE" filter="url(#f1x0cwma5ekj13)" height="48" id="Token" style="stroke:#A80036;stroke-width:1.5;" width="66" x="284.5" y="547"/><ellipse cx="299.5" cy="563" fill="#ADD1B2" rx="11" ry="11" style="stroke:#A80036;stroke-width:1.0;"/><path d="M299.2969,569.5 Q296.8125,569.5 295.4844,567.8281 Q294.1719,566.1563 294.1719,563 Q294.1719,559.8438 295.4844,558.1875 Q296.8125,556.5 299.2969,556.5 Q300.0156,556.5 300.6719,556.6563 Q301.3125,556.8125 301.875,557.125 L301.875,559.9219 Q301.5156,559.5781 301.2188,559.3906 Q300.9219,559.1875 300.6563,559.0781 Q300.3438,558.9375 300.0313,558.875 Q299.7344,558.8125 299.4219,558.8125 Q298.0938,558.8125 297.4063,559.875 Q296.7188,560.9531 296.7188,563 Q296.7188,565.0781 297.4063,566.125 Q298.0938,567.1875 299.4219,567.1875 Q300.0625,567.1875 300.6563,566.9219 Q300.9531,566.7813 301.2344,566.5938 Q301.5313,566.4063 301.875,566.0781 L301.875,568.875 Q301.2969,569.1875 300.6563,569.3438 Q300.0313,569.5 299.2969,569.5 Z " fill="#000000"/><text fill="#000000" font-family="sans-serif" font-size="12" lengthAdjust="spacing" textLength="34" x="313.5" y="567.656">Token</text><line style="stroke:#A80036;stroke-width:1.5;" x1="285.5" x2="349.5" y1="579" y2="579"/><line style="stroke:#A80036;stroke-width:1.5;" x1="285.5" x2="349.5" y1="587" y2="587"/><!--MD5=[31ecd2d5d3776196a697d793f2b80e61]
class WinnerCodeBreaker--><rect fill="#FEFECE" filter="url(#f1x0cwma5ekj13)" height="48" id="WinnerCodeBreaker" style="stroke:#A80036;stroke-width:1.5;" width="146" x="660.5" y="547"/><ellipse cx="675.5" cy="563" fill="#ADD1B2" rx="11" ry="11" style="stroke:#A80036;stroke-width:1.0;"/><path d="M675.2969,569.5 Q672.8125,569.5 671.4844,567.8281 Q670.1719,566.1563 670.1719,563 Q670.1719,559.8438 671.4844,558.1875 Q672.8125,556.5 675.2969,556.5 Q676.0156,556.5 676.6719,556.6563 Q677.3125,556.8125 677.875,557.125 L677.875,559.9219 Q677.5156,559.5781 677.2188,559.3906 Q676.9219,559.1875 676.6563,559.0781 Q676.3438,558.9375 676.0313,558.875 Q675.7344,558.8125 675.4219,558.8125 Q674.0938,558.8125 673.4063,559.875 Q672.7188,560.9531 672.7188,563 Q672.7188,565.0781 673.4063,566.125 Q674.0938,567.1875 675.4219,567.1875 Q676.0625,567.1875 676.6563,566.9219 Q676.9531,566.7813 677.2344,566.5938 Q677.5313,566.4063 677.875,566.0781 L677.875,568.875 Q677.2969,569.1875 676.6563,569.3438 Q676.0313,569.5 675.2969,569.5 Z " fill="#000000"/><text fill="#000000" font-family="sans-serif" font-size="12" lengthAdjust="spacing" textLength="114" x="689.5" y="567.656">WinnerCodeBreaker</text><line style="stroke:#A80036;stroke-width:1.5;" x1="661.5" x2="805.5" y1="579" y2="579"/><line style="stroke:#A80036;stroke-width:1.5;" x1="661.5" x2="805.5" y1="587" y2="587"/><!--MD5=[4d4eb26d042d74c9fb837d4bd92f5625]
class Colour--><rect fill="#FEFECE" filter="url(#f1x0cwma5ekj13)" height="48" id="Colour" style="stroke:#A80036;stroke-width:1.5;" width="69" x="283" y="655"/><ellipse cx="298" cy="671" fill="#ADD1B2" rx="11" ry="11" style="stroke:#A80036;stroke-width:1.0;"/><path d="M297.7969,677.5 Q295.3125,677.5 293.9844,675.8281 Q292.6719,674.1563 292.6719,671 Q292.6719,667.8438 293.9844,666.1875 Q295.3125,664.5 297.7969,664.5 Q298.5156,664.5 299.1719,664.6563 Q299.8125,664.8125 300.375,665.125 L300.375,667.9219 Q300.0156,667.5781 299.7188,667.3906 Q299.4219,667.1875 299.1563,667.0781 Q298.8438,666.9375 298.5313,666.875 Q298.2344,666.8125 297.9219,666.8125 Q296.5938,666.8125 295.9063,667.875 Q295.2188,668.9531 295.2188,671 Q295.2188,673.0781 295.9063,674.125 Q296.5938,675.1875 297.9219,675.1875 Q298.5625,675.1875 299.1563,674.9219 Q299.4531,674.7813 299.7344,674.5938 Q300.0313,674.4063 300.375,674.0781 L300.375,676.875 Q299.7969,677.1875 299.1563,677.3438 Q298.5313,677.5 297.7969,677.5 Z " fill="#000000"/><text fill="#000000" font-family="sans-serif" font-size="12" lengthAdjust="spacing" textLength="37" x="312" y="675.656">Colour</text><line style="stroke:#A80036;stroke-width:1.5;" x1="284" x2="351" y1="687" y2="687"/><line style="stroke:#A80036;stroke-width:1.5;" x1="284" x2="351" y1="695" y2="695"/><!--MD5=[a64a835c3d62471a77f615251fdde58a]
class Position--><rect fill="#FEFECE" filter="url(#f1x0cwma5ekj13)" height="48" id="Position" style="stroke:#A80036;stroke-width:1.5;" width="76" x="597.5" y="763"/><ellipse cx="612.5" cy="779" fill="#ADD1B2" rx="11" ry="11" style="stroke:#A80036;stroke-width:1.0;"/><path d="M612.2969,785.5 Q609.8125,785.5 608.4844,783.8281 Q607.1719,782.1563 607.1719,779 Q607.1719,775.8438 608.4844,774.1875 Q609.8125,772.5 612.2969,772.5 Q613.0156,772.5 613.6719,772.6563 Q614.3125,772.8125 614.875,773.125 L614.875,775.9219 Q614.5156,775.5781 614.2188,775.3906 Q613.9219,775.1875 613.6563,775.0781 Q613.3438,774.9375 613.0313,774.875 Q612.7344,774.8125 612.4219,774.8125 Q611.0938,774.8125 610.4063,775.875 Q609.7188,776.9531 609.7188,779 Q609.7188,781.0781 610.4063,782.125 Q611.0938,783.1875 612.4219,783.1875 Q613.0625,783.1875 613.6563,782.9219 Q613.9531,782.7813 614.2344,782.5938 Q614.5313,782.4063 614.875,782.0781 L614.875,784.875 Q614.2969,785.1875 613.6563,785.3438 Q613.0313,785.5 612.2969,785.5 Z " fill="#000000"/><text fill="#000000" font-family="sans-serif" font-size="12" lengthAdjust="spacing" textLength="44" x="626.5" y="783.656">Position</text><line style="stroke:#A80036;stroke-width:1.5;" x1="598.5" x2="672.5" y1="795" y2="795"/><line style="stroke:#A80036;stroke-width:1.5;" x1="598.5" x2="672.5" y1="803" y2="803"/><!--MD5=[08be530975453a47bdc5b5370100f2fc]
class Red--><rect fill="#FEFECE" filter="url(#f1x0cwma5ekj13)" height="48" id="Red" style="stroke:#A80036;stroke-width:1.5;" width="53" x="7" y="763"/><ellipse cx="22" cy="779" fill="#ADD1B2" rx="11" ry="11" style="stroke:#A80036;stroke-width:1.0;"/><path d="M21.7969,785.5 Q19.3125,785.5 17.9844,783.8281 Q16.6719,782.1563 16.6719,779 Q16.6719,775.8438 17.9844,774.1875 Q19.3125,772.5 21.7969,772.5 Q22.5156,772.5 23.1719,772.6563 Q23.8125,772.8125 24.375,773.125 L24.375,775.9219 Q24.0156,775.5781 23.7188,775.3906 Q23.4219,775.1875 23.1563,775.0781 Q22.8438,774.9375 22.5313,774.875 Q22.2344,774.8125 21.9219,774.8125 Q20.5938,774.8125 19.9063,775.875 Q19.2188,776.9531 19.2188,779 Q19.2188,781.0781 19.9063,782.125 Q20.5938,783.1875 21.9219,783.1875 Q22.5625,783.1875 23.1563,782.9219 Q23.4531,782.7813 23.7344,782.5938 Q24.0313,782.4063 24.375,782.0781 L24.375,784.875 Q23.7969,785.1875 23.1563,785.3438 Q22.5313,785.5 21.7969,785.5 Z " fill="#000000"/><text fill="#000000" font-family="sans-serif" font-size="12" lengthAdjust="spacing" textLength="21" x="36" y="783.656">Red</text><line style="stroke:#A80036;stroke-width:1.5;" x1="8" x2="59" y1="795" y2="795"/><line style="stroke:#A80036;stroke-width:1.5;" x1="8" x2="59" y1="803" y2="803"/><!--MD5=[e5fcaaf7dd279fcaa419853012f8d36f]
class Blue--><rect fill="#FEFECE" filter="url(#f1x0cwma5ekj13)" height="48" id="Blue" style="stroke:#A80036;stroke-width:1.5;" width="57" x="95" y="763"/><ellipse cx="110" cy="779" fill="#ADD1B2" rx="11" ry="11" style="stroke:#A80036;stroke-width:1.0;"/><path d="M109.7969,785.5 Q107.3125,785.5 105.9844,783.8281 Q104.6719,782.1563 104.6719,779 Q104.6719,775.8438 105.9844,774.1875 Q107.3125,772.5 109.7969,772.5 Q110.5156,772.5 111.1719,772.6563 Q111.8125,772.8125 112.375,773.125 L112.375,775.9219 Q112.0156,775.5781 111.7188,775.3906 Q111.4219,775.1875 111.1563,775.0781 Q110.8438,774.9375 110.5313,774.875 Q110.2344,774.8125 109.9219,774.8125 Q108.5938,774.8125 107.9063,775.875 Q107.2188,776.9531 107.2188,779 Q107.2188,781.0781 107.9063,782.125 Q108.5938,783.1875 109.9219,783.1875 Q110.5625,783.1875 111.1563,782.9219 Q111.4531,782.7813 111.7344,782.5938 Q112.0313,782.4063 112.375,782.0781 L112.375,784.875 Q111.7969,785.1875 111.1563,785.3438 Q110.5313,785.5 109.7969,785.5 Z " fill="#000000"/><text fill="#000000" font-family="sans-serif" font-size="12" lengthAdjust="spacing" textLength="25" x="124" y="783.656">Blue</text><line style="stroke:#A80036;stroke-width:1.5;" x1="96" x2="151" y1="795" y2="795"/><line style="stroke:#A80036;stroke-width:1.5;" x1="96" x2="151" y1="803" y2="803"/><!--MD5=[3778656fef14cf416db6e1fe750da04b]
class Green--><rect fill="#FEFECE" filter="url(#f1x0cwma5ekj13)" height="48" id="Green" style="stroke:#A80036;stroke-width:1.5;" width="67" x="187" y="763"/><ellipse cx="202" cy="779" fill="#ADD1B2" rx="11" ry="11" style="stroke:#A80036;stroke-width:1.0;"/><path d="M201.7969,785.5 Q199.3125,785.5 197.9844,783.8281 Q196.6719,782.1563 196.6719,779 Q196.6719,775.8438 197.9844,774.1875 Q199.3125,772.5 201.7969,772.5 Q202.5156,772.5 203.1719,772.6563 Q203.8125,772.8125 204.375,773.125 L204.375,775.9219 Q204.0156,775.5781 203.7188,775.3906 Q203.4219,775.1875 203.1563,775.0781 Q202.8438,774.9375 202.5313,774.875 Q202.2344,774.8125 201.9219,774.8125 Q200.5938,774.8125 199.9063,775.875 Q199.2188,776.9531 199.2188,779 Q199.2188,781.0781 199.9063,782.125 Q200.5938,783.1875 201.9219,783.1875 Q202.5625,783.1875 203.1563,782.9219 Q203.4531,782.7813 203.7344,782.5938 Q204.0313,782.4063 204.375,782.0781 L204.375,784.875 Q203.7969,785.1875 203.1563,785.3438 Q202.5313,785.5 201.7969,785.5 Z " fill="#000000"/><text fill="#000000" font-family="sans-serif" font-size="12" lengthAdjust="spacing" textLength="35" x="216" y="783.656">Green</text><line style="stroke:#A80036;stroke-width:1.5;" x1="188" x2="253" y1="795" y2="795"/><line style="stroke:#A80036;stroke-width:1.5;" x1="188" x2="253" y1="803" y2="803"/><!--MD5=[59a197a4e33151d5112197f2c5528c04]
class Yellow--><rect fill="#FEFECE" filter="url(#f1x0cwma5ekj13)" height="48" id="Yellow" style="stroke:#A80036;stroke-width:1.5;" width="68" x="289.5" y="763"/><ellipse cx="304.5" cy="779" fill="#ADD1B2" rx="11" ry="11" style="stroke:#A80036;stroke-width:1.0;"/><path d="M304.2969,785.5 Q301.8125,785.5 300.4844,783.8281 Q299.1719,782.1563 299.1719,779 Q299.1719,775.8438 300.4844,774.1875 Q301.8125,772.5 304.2969,772.5 Q305.0156,772.5 305.6719,772.6563 Q306.3125,772.8125 306.875,773.125 L306.875,775.9219 Q306.5156,775.5781 306.2188,775.3906 Q305.9219,775.1875 305.6563,775.0781 Q305.3438,774.9375 305.0313,774.875 Q304.7344,774.8125 304.4219,774.8125 Q303.0938,774.8125 302.4063,775.875 Q301.7188,776.9531 301.7188,779 Q301.7188,781.0781 302.4063,782.125 Q303.0938,783.1875 304.4219,783.1875 Q305.0625,783.1875 305.6563,782.9219 Q305.9531,782.7813 306.2344,782.5938 Q306.5313,782.4063 306.875,782.0781 L306.875,784.875 Q306.2969,785.1875 305.6563,785.3438 Q305.0313,785.5 304.2969,785.5 Z " fill="#000000"/><text fill="#000000" font-family="sans-serif" font-size="12" lengthAdjust="spacing" textLength="36" x="318.5" y="783.656">Yellow</text><line style="stroke:#A80036;stroke-width:1.5;" x1="290.5" x2="356.5" y1="795" y2="795"/><line style="stroke:#A80036;stroke-width:1.5;" x1="290.5" x2="356.5" y1="803" y2="803"/><!--MD5=[d0fb6b9bec42d096e013c1394c3b1710]
class Pink--><rect fill="#FEFECE" filter="url(#f1x0cwma5ekj13)" height="48" id="Pink" style="stroke:#A80036;stroke-width:1.5;" width="55" x="393" y="763"/><ellipse cx="408" cy="779" fill="#ADD1B2" rx="11" ry="11" style="stroke:#A80036;stroke-width:1.0;"/><path d="M407.7969,785.5 Q405.3125,785.5 403.9844,783.8281 Q402.6719,782.1563 402.6719,779 Q402.6719,775.8438 403.9844,774.1875 Q405.3125,772.5 407.7969,772.5 Q408.5156,772.5 409.1719,772.6563 Q409.8125,772.8125 410.375,773.125 L410.375,775.9219 Q410.0156,775.5781 409.7188,775.3906 Q409.4219,775.1875 409.1563,775.0781 Q408.8438,774.9375 408.5313,774.875 Q408.2344,774.8125 407.9219,774.8125 Q406.5938,774.8125 405.9063,775.875 Q405.2188,776.9531 405.2188,779 Q405.2188,781.0781 405.9063,782.125 Q406.5938,783.1875 407.9219,783.1875 Q408.5625,783.1875 409.1563,782.9219 Q409.4531,782.7813 409.7344,782.5938 Q410.0313,782.4063 410.375,782.0781 L410.375,784.875 Q409.7969,785.1875 409.1563,785.3438 Q408.5313,785.5 407.7969,785.5 Z " fill="#000000"/><text fill="#000000" font-family="sans-serif" font-size="12" lengthAdjust="spacing" textLength="23" x="422" y="783.656">Pink</text><line style="stroke:#A80036;stroke-width:1.5;" x1="394" x2="447" y1="795" y2="795"/><line style="stroke:#A80036;stroke-width:1.5;" x1="394" x2="447" y1="803" y2="803"/><!--MD5=[a7fc18f5ea1e7cf57d55428400c16471]
class Brown--><rect fill="#FEFECE" filter="url(#f1x0cwma5ekj13)" height="48" id="Brown" style="stroke:#A80036;stroke-width:1.5;" width="68" x="483.5" y="763"/><ellipse cx="498.5" cy="779" fill="#ADD1B2" rx="11" ry="11" style="stroke:#A80036;stroke-width:1.0;"/><path d="M498.2969,785.5 Q495.8125,785.5 494.4844,783.8281 Q493.1719,782.1563 493.1719,779 Q493.1719,775.8438 494.4844,774.1875 Q495.8125,772.5 498.2969,772.5 Q499.0156,772.5 499.6719,772.6563 Q500.3125,772.8125 500.875,773.125 L500.875,775.9219 Q500.5156,775.5781 500.2188,775.3906 Q499.9219,775.1875 499.6563,775.0781 Q499.3438,774.9375 499.0313,774.875 Q498.7344,774.8125 498.4219,774.8125 Q497.0938,774.8125 496.4063,775.875 Q495.7188,776.9531 495.7188,779 Q495.7188,781.0781 496.4063,782.125 Q497.0938,783.1875 498.4219,783.1875 Q499.0625,783.1875 499.6563,782.9219 Q499.9531,782.7813 500.2344,782.5938 Q500.5313,782.4063 500.875,782.0781 L500.875,784.875 Q500.2969,785.1875 499.6563,785.3438 Q499.0313,785.5 498.2969,785.5 Z " fill="#000000"/><text fill="#000000" font-family="sans-serif" font-size="12" lengthAdjust="spacing" textLength="36" x="512.5" y="783.656">Brown</text><line style="stroke:#A80036;stroke-width:1.5;" x1="484.5" x2="550.5" y1="795" y2="795"/><line style="stroke:#A80036;stroke-width:1.5;" x1="484.5" x2="550.5" y1="803" y2="803"/><!--MD5=[5f0899136ed8f523b18ed05779c24112]
class Match--><rect fill="#FEFECE" filter="url(#f1x0cwma5ekj13)" height="48" id="Match" style="stroke:#A80036;stroke-width:1.5;" width="67" x="386" y="547"/><ellipse cx="401" cy="563" fill="#ADD1B2" rx="11" ry="11" style="stroke:#A80036;stroke-width:1.0;"/><path d="M400.7969,569.5 Q398.3125,569.5 396.9844,567.8281 Q395.6719,566.1563 395.6719,563 Q395.6719,559.8438 396.9844,558.1875 Q398.3125,556.5 400.7969,556.5 Q401.5156,556.5 402.1719,556.6563 Q402.8125,556.8125 403.375,557.125 L403.375,559.9219 Q403.0156,559.5781 402.7188,559.3906 Q402.4219,559.1875 402.1563,559.0781 Q401.8438,558.9375 401.5313,558.875 Q401.2344,558.8125 400.9219,558.8125 Q399.5938,558.8125 398.9063,559.875 Q398.2188,560.9531 398.2188,563 Q398.2188,565.0781 398.9063,566.125 Q399.5938,567.1875 400.9219,567.1875 Q401.5625,567.1875 402.1563,566.9219 Q402.4531,566.7813 402.7344,566.5938 Q403.0313,566.4063 403.375,566.0781 L403.375,568.875 Q402.7969,569.1875 402.1563,569.3438 Q401.5313,569.5 400.7969,569.5 Z " fill="#000000"/><text fill="#000000" font-family="sans-serif" font-size="12" lengthAdjust="spacing" textLength="35" x="415" y="567.656">Match</text><line style="stroke:#A80036;stroke-width:1.5;" x1="387" x2="452" y1="579" y2="579"/><line style="stroke:#A80036;stroke-width:1.5;" x1="387" x2="452" y1="587" y2="587"/><!--MD5=[b38b6dedda4d17cc5a4b890ad21e3e02]
class BlackMatch--><rect fill="#FEFECE" filter="url(#f1x0cwma5ekj13)" height="48" id="BlackMatch" style="stroke:#A80036;stroke-width:1.5;" width="97" x="593" y="655"/><ellipse cx="608" cy="671" fill="#ADD1B2" rx="11" ry="11" style="stroke:#A80036;stroke-width:1.0;"/><path d="M607.7969,677.5 Q605.3125,677.5 603.9844,675.8281 Q602.6719,674.1563 602.6719,671 Q602.6719,667.8438 603.9844,666.1875 Q605.3125,664.5 607.7969,664.5 Q608.5156,664.5 609.1719,664.6563 Q609.8125,664.8125 610.375,665.125 L610.375,667.9219 Q610.0156,667.5781 609.7188,667.3906 Q609.4219,667.1875 609.1563,667.0781 Q608.8438,666.9375 608.5313,666.875 Q608.2344,666.8125 607.9219,666.8125 Q606.5938,666.8125 605.9063,667.875 Q605.2188,668.9531 605.2188,671 Q605.2188,673.0781 605.9063,674.125 Q606.5938,675.1875 607.9219,675.1875 Q608.5625,675.1875 609.1563,674.9219 Q609.4531,674.7813 609.7344,674.5938 Q610.0313,674.4063 610.375,674.0781 L610.375,676.875 Q609.7969,677.1875 609.1563,677.3438 Q608.5313,677.5 607.7969,677.5 Z " fill="#000000"/><text fill="#000000" font-family="sans-serif" font-size="12" lengthAdjust="spacing" textLength="65" x="622" y="675.656">BlackMatch</text><line style="stroke:#A80036;stroke-width:1.5;" x1="594" x2="689" y1="687" y2="687"/><line style="stroke:#A80036;stroke-width:1.5;" x1="594" x2="689" y1="695" y2="695"/><!--MD5=[575b3b96919d1f5cab2a270ec623da6d]
class WinnerCodeMaker--><rect fill="#FEFECE" filter="url(#f1x0cwma5ekj13)" height="48" id="WinnerCodeMaker" style="stroke:#A80036;stroke-width:1.5;" width="137" x="488" y="547"/><ellipse cx="503" cy="563" fill="#ADD1B2" rx="11" ry="11" style="stroke:#A80036;stroke-width:1.0;"/><path d="M502.7969,569.5 Q500.3125,569.5 498.9844,567.8281 Q497.6719,566.1563 497.6719,563 Q497.6719,559.8438 498.9844,558.1875 Q500.3125,556.5 502.7969,556.5 Q503.5156,556.5 504.1719,556.6563 Q504.8125,556.8125 505.375,557.125 L505.375,559.9219 Q505.0156,559.5781 504.7188,559.3906 Q504.4219,559.1875 504.1563,559.0781 Q503.8438,558.9375 503.5313,558.875 Q503.2344,558.8125 502.9219,558.8125 Q501.5938,558.8125 500.9063,559.875 Q500.2188,560.9531 500.2188,563 Q500.2188,565.0781 500.9063,566.125 Q501.5938,567.1875 502.9219,567.1875 Q503.5625,567.1875 504.1563,566.9219 Q504.4531,566.7813 504.7344,566.5938 Q505.0313,566.4063 505.375,566.0781 L505.375,568.875 Q504.7969,569.1875 504.1563,569.3438 Q503.5313,569.5 502.7969,569.5 Z " fill="#000000"/><text fill="#000000" font-family="sans-serif" font-size="12" lengthAdjust="spacing" textLength="105" x="517" y="567.656">WinnerCodeMaker</text><line style="stroke:#A80036;stroke-width:1.5;" x1="489" x2="624" y1="579" y2="579"/><line style="stroke:#A80036;stroke-width:1.5;" x1="489" x2="624" y1="587" y2="587"/><!--MD5=[2f3b7a7d14d0d0337742f502e91c8bb6]
class WhiteMatch--><rect fill="#FEFECE" filter="url(#f1x0cwma5ekj13)" height="48" id="WhiteMatch" style="stroke:#A80036;stroke-width:1.5;" width="99" x="459" y="655"/><ellipse cx="474" cy="671" fill="#ADD1B2" rx="11" ry="11" style="stroke:#A80036;stroke-width:1.0;"/><path d="M473.7969,677.5 Q471.3125,677.5 469.9844,675.8281 Q468.6719,674.1563 468.6719,671 Q468.6719,667.8438 469.9844,666.1875 Q471.3125,664.5 473.7969,664.5 Q474.5156,664.5 475.1719,664.6563 Q475.8125,664.8125 476.375,665.125 L476.375,667.9219 Q476.0156,667.5781 475.7188,667.3906 Q475.4219,667.1875 475.1563,667.0781 Q474.8438,666.9375 474.5313,666.875 Q474.2344,666.8125 473.9219,666.8125 Q472.5938,666.8125 471.9063,667.875 Q471.2188,668.9531 471.2188,671 Q471.2188,673.0781 471.9063,674.125 Q472.5938,675.1875 473.9219,675.1875 Q474.5625,675.1875 475.1563,674.9219 Q475.4531,674.7813 475.7344,674.5938 Q476.0313,674.4063 476.375,674.0781 L476.375,676.875 Q475.7969,677.1875 475.1563,677.3438 Q474.5313,677.5 473.7969,677.5 Z " fill="#000000"/><text fill="#000000" font-family="sans-serif" font-size="12" lengthAdjust="spacing" textLength="67" x="488" y="675.656">WhiteMatch</text><line style="stroke:#A80036;stroke-width:1.5;" x1="460" x2="557" y1="687" y2="687"/><line style="stroke:#A80036;stroke-width:1.5;" x1="460" x2="557" y1="695" y2="695"/><!--MD5=[f8e7078f77c005d15b486c0c98deb1e6]
class Action--><rect fill="#FEFECE" filter="url(#f1x0cwma5ekj13)" height="48" id="Action" style="stroke:#A80036;stroke-width:1.5;" width="67" x="719" y="7"/><ellipse cx="734" cy="23" fill="#ADD1B2" rx="11" ry="11" style="stroke:#A80036;stroke-width:1.0;"/><path d="M733.7969,29.5 Q731.3125,29.5 729.9844,27.8281 Q728.6719,26.1563 728.6719,23 Q728.6719,19.8438 729.9844,18.1875 Q731.3125,16.5 733.7969,16.5 Q734.5156,16.5 735.1719,16.6563 Q735.8125,16.8125 736.375,17.125 L736.375,19.9219 Q736.0156,19.5781 735.7188,19.3906 Q735.4219,19.1875 735.1563,19.0781 Q734.8438,18.9375 734.5313,18.875 Q734.2344,18.8125 733.9219,18.8125 Q732.5938,18.8125 731.9063,19.875 Q731.2188,20.9531 731.2188,23 Q731.2188,25.0781 731.9063,26.125 Q732.5938,27.1875 733.9219,27.1875 Q734.5625,27.1875 735.1563,26.9219 Q735.4531,26.7813 735.7344,26.5938 Q736.0313,26.4063 736.375,26.0781 L736.375,28.875 Q735.7969,29.1875 735.1563,29.3438 Q734.5313,29.5 733.7969,29.5 Z " fill="#000000"/><text fill="#000000" font-family="sans-serif" font-size="12" lengthAdjust="spacing" textLength="35" x="748" y="27.656">Action</text><line style="stroke:#A80036;stroke-width:1.5;" x1="720" x2="785" y1="39" y2="39"/><line style="stroke:#A80036;stroke-width:1.5;" x1="720" x2="785" y1="47" y2="47"/><!--MD5=[0ef5ab0e6d098cd42b386ce8ac382536]
class PutCodeSecret--><rect fill="#FEFECE" filter="url(#f1x0cwma5ekj13)" height="48" id="PutCodeSecret" style="stroke:#A80036;stroke-width:1.5;" width="115" x="748" y="115"/><ellipse cx="763" cy="131" fill="#ADD1B2" rx="11" ry="11" style="stroke:#A80036;stroke-width:1.0;"/><path d="M762.7969,137.5 Q760.3125,137.5 758.9844,135.8281 Q757.6719,134.1563 757.6719,131 Q757.6719,127.8438 758.9844,126.1875 Q760.3125,124.5 762.7969,124.5 Q763.5156,124.5 764.1719,124.6563 Q764.8125,124.8125 765.375,125.125 L765.375,127.9219 Q765.0156,127.5781 764.7188,127.3906 Q764.4219,127.1875 764.1563,127.0781 Q763.8438,126.9375 763.5313,126.875 Q763.2344,126.8125 762.9219,126.8125 Q761.5938,126.8125 760.9063,127.875 Q760.2188,128.9531 760.2188,131 Q760.2188,133.0781 760.9063,134.125 Q761.5938,135.1875 762.9219,135.1875 Q763.5625,135.1875 764.1563,134.9219 Q764.4531,134.7813 764.7344,134.5938 Q765.0313,134.4063 765.375,134.0781 L765.375,136.875 Q764.7969,137.1875 764.1563,137.3438 Q763.5313,137.5 762.7969,137.5 Z " fill="#000000"/><text fill="#000000" font-family="sans-serif" font-size="12" lengthAdjust="spacing" textLength="83" x="777" y="135.656">PutCodeSecret</text><line style="stroke:#A80036;stroke-width:1.5;" x1="749" x2="862" y1="147" y2="147"/><line style="stroke:#A80036;stroke-width:1.5;" x1="749" x2="862" y1="155" y2="155"/><!--MD5=[a82aed1633a193fca764db5538477251]
class MakeCodeProposal--><rect fill="#FEFECE" filter="url(#f1x0cwma5ekj13)" height="48" id="MakeCodeProposal" style="stroke:#A80036;stroke-width:1.5;" width="141" x="376" y="115"/><ellipse cx="391" cy="131" fill="#ADD1B2" rx="11" ry="11" style="stroke:#A80036;stroke-width:1.0;"/><path d="M390.7969,137.5 Q388.3125,137.5 386.9844,135.8281 Q385.6719,134.1563 385.6719,131 Q385.6719,127.8438 386.9844,126.1875 Q388.3125,124.5 390.7969,124.5 Q391.5156,124.5 392.1719,124.6563 Q392.8125,124.8125 393.375,125.125 L393.375,127.9219 Q393.0156,127.5781 392.7188,127.3906 Q392.4219,127.1875 392.1563,127.0781 Q391.8438,126.9375 391.5313,126.875 Q391.2344,126.8125 390.9219,126.8125 Q389.5938,126.8125 388.9063,127.875 Q388.2188,128.9531 388.2188,131 Q388.2188,133.0781 388.9063,134.125 Q389.5938,135.1875 390.9219,135.1875 Q391.5625,135.1875 392.1563,134.9219 Q392.4531,134.7813 392.7344,134.5938 Q393.0313,134.4063 393.375,134.0781 L393.375,136.875 Q392.7969,137.1875 392.1563,137.3438 Q391.5313,137.5 390.7969,137.5 Z " fill="#000000"/><text fill="#000000" font-family="sans-serif" font-size="12" lengthAdjust="spacing" textLength="109" x="405" y="135.656">MakeCodeProposal</text><line style="stroke:#A80036;stroke-width:1.5;" x1="377" x2="516" y1="147" y2="147"/><line style="stroke:#A80036;stroke-width:1.5;" x1="377" x2="516" y1="155" y2="155"/><!--MD5=[ba28573f2062cf9f5d1d4aa517f0cc38]
link Mastermind to Board--><path codeLine="1" d="M519.793,53.7169 C519.793,53.7169 411.99,93.01 358.5,115 C356.58,115.79 354.63,116.6 352.67,117.44 " fill="none" id="Mastermind-Board" style="stroke:#A80036;stroke-width:1.0;"/><polygon fill="#A80036" points="340.55,122.7,350.3986,122.7759,345.1346,120.7046,347.2059,115.4406,340.55,122.7" style="stroke:#A80036;stroke-width:1.0;"/><line style="stroke:#A80036;stroke-width:1.0;" x1="345.1346" x2="352.475" y1="120.7046" y2="117.52"/><polygon fill="#A80036" points="531.09,49.67,524.0925,47.9278,519.793,53.7169,526.7905,55.4591,531.09,49.67" style="stroke:#A80036;stroke-width:1.0;"/><!--MD5=[af4d99cd4784731f062880949247790a]
link Mastermind to Player--><path codeLine="2" d="M610.9021,63.8151 C610.9021,63.8151 637,92.03 648.86,104.85 " fill="none" id="Mastermind-Player" style="stroke:#A80036;stroke-width:1.0;"/><polygon fill="#A80036" points="657.94,114.68,654.7643,105.3572,654.5445,111.0098,648.8919,110.79,657.94,114.68" style="stroke:#A80036;stroke-width:1.0;"/><line style="stroke:#A80036;stroke-width:1.0;" x1="654.5445" x2="649.11" y1="111.0098" y2="105.13"/><polygon fill="#A80036" points="602.76,55,603.8927,62.1216,610.9021,63.8151,609.7694,56.6935,602.76,55" style="stroke:#A80036;stroke-width:1.0;"/><text fill="#000000" font-family="sans-serif" font-size="13" lengthAdjust="spacing" textLength="7" x="644.5184" y="103.2573">2</text><!--MD5=[f95f66ed9d6e0f523703ae56e87204e4]
link Mastermind to Turn--><path codeLine="3" d="M581.5,67 C581.5,67 581.5,90.68 581.5,101.36 " fill="none" id="Mastermind-Turn" style="stroke:#A80036;stroke-width:1.0;"/><polygon fill="#A80036" points="581.5,114.68,585.5,105.68,581.5,109.68,577.5,105.68,581.5,114.68" style="stroke:#A80036;stroke-width:1.0;"/><line style="stroke:#A80036;stroke-width:1.0;" x1="581.5" x2="581.5" y1="109.68" y2="101.68"/><polygon fill="#A80036" points="581.5,55,577.5,61,581.5,67,585.5,61,581.5,55" style="stroke:#A80036;stroke-width:1.0;"/><!--MD5=[4c0e5c8f8fb76e17fe0196573152c80f]
reverse link Player to CodeMaker--><path codeLine="5" d="M685.59,183.02 C687.51,196.58 689.55,211.04 691.2,222.68 " fill="none" id="Player-backto-CodeMaker" style="stroke:#A80036;stroke-width:1.0;"/><polygon fill="none" points="678.63,183.78,682.75,163,692.49,181.82,678.63,183.78" style="stroke:#A80036;stroke-width:1.0;"/><!--MD5=[a491322cc06b1536d95205480bcc28b0]
reverse link Player to CodeBreaker--><path codeLine="6" d="M637.68,176.34 C620.02,191.68 599.97,209.1 584.34,222.68 " fill="none" id="Player-backto-CodeBreaker" style="stroke:#A80036;stroke-width:1.0;"/><polygon fill="none" points="633.34,170.83,653.03,163,642.52,181.4,633.34,170.83" style="stroke:#A80036;stroke-width:1.0;"/><!--MD5=[ece2e1c2b52b35f6740fcf22086dc3ac]
link CodeMaker to SecretCode--><path codeLine="8" d="M707.1011,282.2628 C707.1011,282.2628 716.19,306.96 720.32,318.18 " fill="none" id="CodeMaker-SecretCode" style="stroke:#A80036;stroke-width:1.0;"/><polygon fill="#A80036" points="724.92,330.68,725.5684,320.8525,723.1945,325.9872,718.0599,323.6133,724.92,330.68" style="stroke:#A80036;stroke-width:1.0;"/><line style="stroke:#A80036;stroke-width:1.0;" x1="723.1945" x2="720.43" y1="325.9872" y2="318.48"/><polygon fill="#A80036" points="702.96,271,701.2763,278.0118,707.1011,282.2628,708.7848,275.251,702.96,271" style="stroke:#A80036;stroke-width:1.0;"/><!--MD5=[8c03fa198ae9b0dfcdb578ac2c5b7c0b]
link CodeBreaker to CodeProposal--><path codeLine="9" d="M526.2677,279.5182 C526.2677,279.5182 497.75,308.32 484.96,321.23 " fill="none" id="CodeBreaker-CodeProposal" style="stroke:#A80036;stroke-width:1.0;"/><polygon fill="#A80036" points="475.6,330.68,484.7758,327.1016,479.119,327.128,479.0926,321.4712,475.6,330.68" style="stroke:#A80036;stroke-width:1.0;"/><line style="stroke:#A80036;stroke-width:1.0;" x1="479.119" x2="484.75" y1="327.128" y2="321.44"/><polygon fill="#A80036" points="534.72,271,527.6545,272.4417,526.2677,279.5182,533.3333,278.0765,534.72,271" style="stroke:#A80036;stroke-width:1.0;"/><!--MD5=[b20ad1356cce6fc87b61237741ee8136]
link Turn to CodeMaker--><path codeLine="11" d="M606.02,163 C623.52,179.42 647.12,201.56 665.55,218.84 " fill="none" id="Turn-to-CodeMaker" style="stroke:#A80036;stroke-width:1.0;"/><polygon fill="#A80036" points="669.64,222.68,665.8277,213.5989,665.999,219.2532,660.3447,219.4245,669.64,222.68" style="stroke:#A80036;stroke-width:1.0;"/><!--MD5=[5260f48e673e638107fdbc9d5ea2cc56]
link Turn to CodeBreaker--><path codeLine="12" d="M576.29,163 C572.67,179 567.81,200.45 563.95,217.53 " fill="none" id="Turn-to-CodeBreaker" style="stroke:#A80036;stroke-width:1.0;"/><polygon fill="#A80036" points="562.78,222.68,568.6641,214.7821,563.8813,217.8028,560.8606,213.02,562.78,222.68" style="stroke:#A80036;stroke-width:1.0;"/><text fill="#000000" font-family="sans-serif" font-size="13" lengthAdjust="spacing" textLength="30" x="530.2892" y="211.2573">0.. 15</text><!--MD5=[e3b63c0fcd22d6f4a387b3f834e5d49b]
link Board to Code--><path codeLine="14" d="M324.9646,173.6475 C324.9646,173.6475 338.24,199.25 344.23,210.78 " fill="none" id="Board-Code" style="stroke:#A80036;stroke-width:1.0;"/><polygon fill="#A80036" points="350.4,222.68,349.8078,212.849,348.0983,218.2413,342.7059,216.5318,350.4,222.68" style="stroke:#A80036;stroke-width:1.0;"/><line style="stroke:#A80036;stroke-width:1.0;" x1="348.0983" x2="344.41" y1="218.2413" y2="211.135"/><polygon fill="#A80036" points="319.43,163,318.6481,170.1686,324.9646,173.6475,325.7464,166.4789,319.43,163" style="stroke:#A80036;stroke-width:1.0;"/><!--MD5=[8dd95aff79c51151a18c835e3410b3cd]
link Board to Result--><path codeLine="15" d="M304.843,175.2966 C304.843,175.2966 305.05,240.18 314.5,271 C334.02,334.64 384.47,394.53 418.65,429.74 " fill="none" id="Board-Result" style="stroke:#A80036;stroke-width:1.0;"/><polygon fill="#A80036" points="427.82,439,424.3202,429.7939,424.2982,435.4508,418.6414,435.4288,427.82,439" style="stroke:#A80036;stroke-width:1.0;"/><line style="stroke:#A80036;stroke-width:1.0;" x1="424.2982" x2="418.67" y1="435.4508" y2="429.765"/><polygon fill="#A80036" points="305.41,163.31,301.131,169.1143,304.843,175.2966,309.122,169.4923,305.41,163.31" style="stroke:#A80036;stroke-width:1.0;"/><!--MD5=[37ff2eae32d91fa2c735d414bb1280fd]
reverse link Code to SecretCode--><path codeLine="17" d="M412.49,262.28 C483.91,282.69 614.31,319.95 684.94,340.13 " fill="none" id="Code-backto-SecretCode" style="stroke:#A80036;stroke-width:1.0;"/><polygon fill="none" points="410.48,268.99,393.18,256.76,414.33,255.53,410.48,268.99" style="stroke:#A80036;stroke-width:1.0;"/><!--MD5=[8821dbb2761ced7b58eca0634e08a8d2]
reverse link Code to CodeProposal--><path codeLine="18" d="M395.36,286.7 C407.88,301.45 421.76,317.79 432.7,330.68 " fill="none" id="Code-backto-CodeProposal" style="stroke:#A80036;stroke-width:1.0;"/><polygon fill="none" points="389.64,290.78,382.03,271,400.31,281.72,389.64,290.78" style="stroke:#A80036;stroke-width:1.0;"/><!--MD5=[0eb889691679fc9d25566ae088f53edb]
link Code to Token--><path codeLine="19" d="M359.26,271.16 C351.21,328.8 330.27,478.61 321.48,541.52 " fill="none" id="Code-to-Token" style="stroke:#A80036;stroke-width:1.0;"/><polygon fill="#A80036" points="320.77,546.62,325.9688,538.255,321.4571,541.6674,318.0447,537.1557,320.77,546.62" style="stroke:#A80036;stroke-width:1.0;"/><text fill="#000000" font-family="sans-serif" font-size="13" lengthAdjust="spacing" textLength="7" x="313.7111" y="535.182">5</text><!--MD5=[8e442680597c5067d47e15901b63db4d]
link SecretCode to WinnerCodeBreaker--><path codeLine="20" d="M733.5,379.31 C733.5,418.87 733.5,498.99 733.5,541.7 " fill="none" id="SecretCode-to-WinnerCodeBreaker" style="stroke:#A80036;stroke-width:1.0;"/><polygon fill="#A80036" points="733.5,546.72,737.5,537.72,733.5,541.72,729.5,537.72,733.5,546.72" style="stroke:#A80036;stroke-width:1.0;"/><!--MD5=[18730f59dfaae281c824134a841b42ca]
link Token to Colour--><path codeLine="22" d="M317.5,607 C317.5,607 317.5,630.68 317.5,641.36 " fill="none" id="Token-Colour" style="stroke:#A80036;stroke-width:1.0;"/><polygon fill="#A80036" points="317.5,654.68,321.5,645.68,317.5,649.68,313.5,645.68,317.5,654.68" style="stroke:#A80036;stroke-width:1.0;"/><line style="stroke:#A80036;stroke-width:1.0;" x1="317.5" x2="317.5" y1="649.68" y2="641.68"/><polygon fill="#A80036" points="317.5,595,313.5,601,317.5,607,321.5,601,317.5,595" style="stroke:#A80036;stroke-width:1.0;"/><!--MD5=[03db1de569ad05e673b5e9c66559de35]
link Token to Position--><path codeLine="23" d="M334.52,595.11 C356.52,623.66 397.31,672.21 441.5,703 C466.93,720.72 543.48,751.27 592.48,769.95 " fill="none" id="Token-to-Position" style="stroke:#A80036;stroke-width:1.0;"/><polygon fill="#A80036" points="597.42,771.83,590.423,764.8988,592.7448,770.0572,587.5865,772.379,597.42,771.83" style="stroke:#A80036;stroke-width:1.0;"/><!--MD5=[594d509c9355fcbd55d722f1b8f4c8a4]
reverse link Colour to Red--><path codeLine="25" d="M263.58,696.12 C214.36,711.42 139.98,736.04 77.5,763 C71.8,765.46 65.83,768.35 60.18,771.24 " fill="none" id="Colour-backto-Red" style="stroke:#A80036;stroke-width:1.0;"/><polygon fill="none" points="261.54,689.42,282.71,690.25,265.64,702.81,261.54,689.42" style="stroke:#A80036;stroke-width:1.0;"/><!--MD5=[e3d4d46bbf4b9e55f878337af24af16f]
reverse link Colour to Blue--><path codeLine="26" d="M264.96,708.71 C228.68,728.53 181.82,754.14 152.2,770.32 " fill="none" id="Colour-backto-Blue" style="stroke:#A80036;stroke-width:1.0;"/><polygon fill="none" points="261.91,702.4,282.82,698.95,268.62,714.68,261.91,702.4" style="stroke:#A80036;stroke-width:1.0;"/><!--MD5=[c63649c9b8a8f5a2c34bd7a8ffd458ef]
reverse link Colour to Green--><path codeLine="27" d="M282.52,718.23 C268.91,733.1 253.76,749.65 241.84,762.68 " fill="none" id="Colour-backto-Green" style="stroke:#A80036;stroke-width:1.0;"/><polygon fill="none" points="277.79,713.03,296.45,703,288.11,722.48,277.79,713.03" style="stroke:#A80036;stroke-width:1.0;"/><!--MD5=[6c81e8aeeb5eddbf2c6e640b48ab5daf]
reverse link Colour to Yellow--><path codeLine="28" d="M319.94,723.02 C320.7,736.58 321.52,751.04 322.18,762.68 " fill="none" id="Colour-backto-Yellow" style="stroke:#A80036;stroke-width:1.0;"/><polygon fill="none" points="312.94,723.36,318.8,703,326.92,722.57,312.94,723.36" style="stroke:#A80036;stroke-width:1.0;"/><!--MD5=[dab85d4ff89d9ecfbbf917ec9ee8669a]
reverse link Colour to Pink--><path codeLine="29" d="M354.18,717.75 C368.75,732.74 385.05,749.51 397.84,762.68 " fill="none" id="Colour-backto-Pink" style="stroke:#A80036;stroke-width:1.0;"/><polygon fill="none" points="348.77,722.22,339.85,703,358.81,712.47,348.77,722.22" style="stroke:#A80036;stroke-width:1.0;"/><!--MD5=[36b3e1c9707bbaf5ee8fb210d72fbf33]
reverse link Colour to Brown--><path codeLine="30" d="M370.47,708.07 C406.25,727.04 452.42,751.51 483.4,767.92 " fill="none" id="Colour-backto-Brown" style="stroke:#A80036;stroke-width:1.0;"/><polygon fill="none" points="366.73,714.01,352.34,698.46,373.29,701.64,366.73,714.01" style="stroke:#A80036;stroke-width:1.0;"/><!--MD5=[358fb04c46986e40ca2872240946c64e]
link CodeProposal to Result--><path codeLine="32" d="M452.5,379 C452.5,395 452.5,416.45 452.5,433.53 " fill="none" id="CodeProposal-to-Result" style="stroke:#A80036;stroke-width:1.0;"/><polygon fill="#A80036" points="452.5,438.68,456.5,429.68,452.5,433.68,448.5,429.68,452.5,438.68" style="stroke:#A80036;stroke-width:1.0;"/><!--MD5=[6093fb4f1e2329c4343dd690507550d0]
link Result to Match--><path codeLine="34" d="M441.7675,498.4559 C441.7675,498.4559 434.15,522.95 430.72,533.95 " fill="none" id="Result-Match" style="stroke:#A80036;stroke-width:1.0;"/><polygon fill="#A80036" points="426.76,546.68,433.258,539.2789,428.2486,541.9067,425.6208,536.8973,426.76,546.68" style="stroke:#A80036;stroke-width:1.0;"/><line style="stroke:#A80036;stroke-width:1.0;" x1="428.2486" x2="430.625" y1="541.9067" y2="534.265"/><polygon fill="#A80036" points="445.34,487,439.7351,491.5371,441.7675,498.4559,447.3724,493.9188,445.34,487" style="stroke:#A80036;stroke-width:1.0;"/><text fill="#000000" font-family="sans-serif" font-size="13" lengthAdjust="spacing" textLength="23" x="402.6735" y="535.2573">0.. 5</text><!--MD5=[9c579e24e29930d04aab99f5e22a11fa]
reverse link Result to WinnerCodeBreaker--><path codeLine="35" d="M504.4,483.58 C551.92,501.5 622.28,528.04 672.47,546.98 " fill="none" id="Result-backto-WinnerCodeBreaker" style="stroke:#A80036;stroke-width:1.0;"/><polygon fill="none" points="501.8,490.08,485.56,476.47,506.74,476.98,501.8,490.08" style="stroke:#A80036;stroke-width:1.0;"/><!--MD5=[0d89b016e2787c201ead8843f8ef163e]
link WinnerCodeBreaker to BlackMatch--><path codeLine="36" d="M713.54,595 C699.29,611.42 680.07,633.56 665.07,650.84 " fill="none" id="WinnerCodeBreaker-to-BlackMatch" style="stroke:#A80036;stroke-width:1.0;"/><polygon fill="#A80036" points="661.74,654.68,670.6589,650.5024,665.0163,650.903,664.6157,645.2603,661.74,654.68" style="stroke:#A80036;stroke-width:1.0;"/><text fill="#000000" font-family="sans-serif" font-size="13" lengthAdjust="spacing" textLength="7" x="659.0296" y="643.2573">5</text><!--MD5=[9b84512bd058dce16e7704de1a7a845e]
link CodeBreaker to WinnerCodeBreaker--><path codeLine="37" d="M570.16,271.16 C601.73,328.92 683.88,479.22 718.14,541.9 " fill="none" id="CodeBreaker-to-WinnerCodeBreaker" style="stroke:#A80036;stroke-width:1.0;"/><polygon fill="#A80036" points="720.72,546.62,719.9085,536.8046,718.3197,542.2338,712.8906,540.6451,720.72,546.62" style="stroke:#A80036;stroke-width:1.0;"/><!--MD5=[60362e391c849c65e1a0bfe20b31f476]
reverse link Result to WinnerCodeMaker--><path codeLine="39" d="M489.08,501.28 C503.9,516.39 520.57,533.38 533.62,546.68 " fill="none" id="Result-backto-WinnerCodeMaker" style="stroke:#A80036;stroke-width:1.0;"/><polygon fill="none" points="484.08,506.18,475.07,487,494.07,496.37,484.08,506.18" style="stroke:#A80036;stroke-width:1.0;"/><!--MD5=[1fb80c1abaa2bfa0904971a3ff1ab4e5]
link CodeMaker to WinnerCodeMaker--><path codeLine="40" d="M684.58,271.16 C659.82,328.92 595.41,479.22 568.54,541.9 " fill="none" id="CodeMaker-to-WinnerCodeMaker" style="stroke:#A80036;stroke-width:1.0;"/><polygon fill="#A80036" points="566.52,546.62,573.7419,539.9234,568.4896,542.0243,566.3887,536.772,566.52,546.62" style="stroke:#A80036;stroke-width:1.0;"/><!--MD5=[8d07429bed5897ee03c8a8f82827007d]
link WinnerCodeMaker to WhiteMatch--><path codeLine="41" d="M546.08,595 C538.78,611.14 528.96,632.82 521.19,649.97 " fill="none" id="WinnerCodeMaker-to-WhiteMatch" style="stroke:#A80036;stroke-width:1.0;"/><polygon fill="#A80036" points="519.06,654.68,526.4257,648.1419,521.129,650.1282,519.1428,644.8315,519.06,654.68" style="stroke:#A80036;stroke-width:1.0;"/><text fill="#000000" font-family="sans-serif" font-size="13" lengthAdjust="spacing" textLength="23" x="495.8191" y="643.2573">0.. 5</text><!--MD5=[2b6b59c23302c0c8f6544d2be4cb62a9]
reverse link Match to WhiteMatch--><path codeLine="43" d="M452,610.7 C464.38,625.45 478.1,641.79 488.92,654.68 " fill="none" id="Match-backto-WhiteMatch" style="stroke:#A80036;stroke-width:1.0;"/><polygon fill="none" points="446.31,614.82,438.81,595,457.03,605.82,446.31,614.82" style="stroke:#A80036;stroke-width:1.0;"/><!--MD5=[652e67bc44c2a881aaf713af939bd7c2]
reverse link Match to BlackMatch--><path codeLine="44" d="M471.44,596.8 C508.18,614.34 557.09,637.7 593.03,654.86 " fill="none" id="Match-backto-BlackMatch" style="stroke:#A80036;stroke-width:1.0;"/><polygon fill="none" points="468.25,603.03,453.22,588.1,474.28,590.4,468.25,603.03" style="stroke:#A80036;stroke-width:1.0;"/><!--MD5=[d2957c39362310a7c15145b5cf03284c]
link Match to Colour--><path codeLine="45" d="M397.37,595 C381.57,611.42 360.26,633.56 343.63,650.84 " fill="none" id="Match-to-Colour" style="stroke:#A80036;stroke-width:1.0;"/><polygon fill="#A80036" points="339.94,654.68,349.0666,650.9779,343.4107,651.0808,343.3078,645.4249,339.94,654.68" style="stroke:#A80036;stroke-width:1.0;"/><!--MD5=[f8ffc333ca014b0c801a842ac3c9750f]
link BlackMatch to Position--><path codeLine="46" d="M640.2,703 C639.29,719 638.08,740.45 637.11,757.53 " fill="none" id="BlackMatch-to-Position" style="stroke:#A80036;stroke-width:1.0;"/><polygon fill="#A80036" points="636.82,762.68,641.3284,753.9236,637.1061,757.6882,633.3415,753.4659,636.82,762.68" style="stroke:#A80036;stroke-width:1.0;"/><!--MD5=[4f106abd91f6d4ab7a28225dbc1531ca]
reverse link Action to PutCodeSecret--><path codeLine="48" d="M773.05,73.09 C780.1,87.2 787.74,102.48 793.84,114.68 " fill="none" id="Action-backto-PutCodeSecret" style="stroke:#A80036;stroke-width:1.0;"/><polygon fill="none" points="766.68,76.02,764,55,779.21,69.76,766.68,76.02" style="stroke:#A80036;stroke-width:1.0;"/><!--MD5=[153e394459e3ee50661db2822e285f99]
link PutCodeSecret to CodeMaker--><path codeLine="49" d="M781.41,163 C764.22,179.42 741.04,201.56 722.94,218.84 " fill="none" id="PutCodeSecret-to-CodeMaker" style="stroke:#A80036;stroke-width:1.0;"/><polygon fill="#A80036" points="718.92,222.68,728.1887,219.3496,722.5332,219.2239,722.6589,213.5684,718.92,222.68" style="stroke:#A80036;stroke-width:1.0;"/><!--MD5=[3cb6805bc05b21499673429037446445]
link PutCodeSecret to SecretCode--><path codeLine="50" d="M797.66,163.31 C784.32,202.95 757.28,283.32 742.93,325.96 " fill="none" id="PutCodeSecret-to-SecretCode" style="stroke:#A80036;stroke-width:1.0;"/><polygon fill="#A80036" points="741.33,330.72,747.997,323.4708,742.9283,325.9823,740.4167,320.9136,741.33,330.72" style="stroke:#A80036;stroke-width:1.0;"/><!--MD5=[ebbc1f908c5254511d0d021700d50951]
reverse link Action to MakeCodeProposal--><path codeLine="52" d="M699.84,50.24 C648.09,68.17 568.95,95.58 512.92,114.99 " fill="none" id="Action-backto-MakeCodeProposal" style="stroke:#A80036;stroke-width:1.0;"/><polygon fill="none" points="697.69,43.58,718.88,43.65,702.27,56.81,697.69,43.58" style="stroke:#A80036;stroke-width:1.0;"/><!--MD5=[74bda1788b618b4c52327506f611fa11]
link MakeCodeProposal to CodeBreaker--><path codeLine="53" d="M470.59,163 C487.78,179.42 510.96,201.56 529.06,218.84 " fill="none" id="MakeCodeProposal-to-CodeBreaker" style="stroke:#A80036;stroke-width:1.0;"/><polygon fill="#A80036" points="533.08,222.68,529.3411,213.5684,529.4668,219.2239,523.8113,219.3496,533.08,222.68" style="stroke:#A80036;stroke-width:1.0;"/><!--MD5=[50c6e34a6741ee7ca749278b312c6a30]
link MakeCodeProposal to CodeProposal--><path codeLine="54" d="M447.15,163.31 C448.26,202.87 450.51,282.99 451.71,325.7 " fill="none" id="MakeCodeProposal-to-CodeProposal" style="stroke:#A80036;stroke-width:1.0;"/><polygon fill="#A80036" points="451.85,330.72,455.5913,321.6094,451.7072,325.722,447.5946,321.8379,451.85,330.72" style="stroke:#A80036;stroke-width:1.0;"/><!--MD5=[50af1fa34cfb1ec29e8cfbe6df44adde]
@startuml
Mastermind *-down-> Board
Mastermind *-down-> "2" Player
Mastermind *-down-> Turn

Player <|- - CodeMaker
Player <|- - CodeBreaker

CodeMaker *-down-> SecretCode
CodeBreaker *-down-> CodeProposal

Turn -down-> CodeMaker
Turn -down-> "0.. 15" CodeBreaker

Board *-down-> Code
Board *-down-> Result

Code <|-down- SecretCode
Code <|-down- CodeProposal
Code -down-> "5" Token
SecretCode -down-> WinnerCodeBreaker

Token *- -> Colour
Token - -> Position

Colour <|-down- Red
Colour <|-down- Blue
Colour <|-down- Green
Colour <|-down- Yellow
Colour <|-down- Pink
Colour <|-down- Brown

CodeProposal - -> Result

Result *-down-> "0.. 5" Match
Result <|-down- WinnerCodeBreaker
WinnerCodeBreaker -down-> "5" BlackMatch
CodeBreaker -down-> WinnerCodeBreaker

Result <|-down- WinnerCodeMaker
CodeMaker -down-> WinnerCodeMaker
WinnerCodeMaker -down-> "0.. 5" WhiteMatch

Match <|- - WhiteMatch
Match <|- - BlackMatch
Match -down-> Colour
BlackMatch -down-> Position

Action <|-down- PutCodeSecret
PutCodeSecret -down-> CodeMaker
PutCodeSecret -down-> SecretCode

Action <|-down- MakeCodeProposal
MakeCodeProposal -down-> CodeBreaker
MakeCodeProposal -down-> CodeProposal
@enduml

PlantUML version 1.2021.01(Tue Feb 02 08:55:08 CET 2021)
(GPL source distribution)
Java Runtime: OpenJDK Runtime Environment
JVM: OpenJDK 64-Bit Server VM
Default Encoding: UTF-8
Language: en
Country: US
--></g></svg>